<svg width="40" height="40" viewBox="0 0 40 40" fill="none" xmlns="http://www.w3.org/2000/svg">
<path fill-rule="evenodd" clip-rule="evenodd" d="M18.2468 2.08331H21.7535C23.251 2.08327 24.4997 2.08323 25.491 2.2165C26.5373 2.35718 27.482 2.66663 28.2411 3.42574C29.0002 4.18486 29.3096 5.12953 29.4503 6.17585C29.5836 7.16715 29.5835 8.41586 29.5835 9.91333L29.5835 12.0834C30.5444 12.0842 31.3588 12.0915 32.0318 12.16C32.8209 12.2402 33.5532 12.4148 34.2132 12.8557C34.7136 13.1901 35.1433 13.6198 35.4777 14.1203C35.9187 14.7803 36.0932 15.5126 36.1735 16.3017C36.2502 17.0556 36.2502 17.9868 36.2502 19.1028V35.4166H36.6668C37.3572 35.4166 37.9168 35.9763 37.9168 36.6666C37.9168 37.357 37.3572 37.9166 36.6668 37.9166H3.3335C2.64314 37.9166 2.0835 37.357 2.0835 36.6666C2.0835 35.9763 2.64314 35.4166 3.3335 35.4166H3.75016L3.75016 19.1027C3.75013 17.9868 3.75011 17.0556 3.8268 16.3017C3.90708 15.5126 4.0816 14.7803 4.52259 14.1203C4.85699 13.6198 5.28668 13.1901 5.78713 12.8557C6.44713 12.4148 7.17941 12.2402 7.96853 12.16C8.64155 12.0915 9.45588 12.0842 10.4168 12.0834L10.4168 9.91333C10.4168 8.41586 10.4167 7.16715 10.55 6.17585C10.6907 5.12953 11.0001 4.18486 11.7593 3.42574C12.5184 2.66663 13.463 2.35718 14.5094 2.2165C15.5007 2.08323 16.7494 2.08327 18.2468 2.08331ZM10.4168 14.5835C9.44585 14.5846 8.75992 14.5924 8.22154 14.6471C7.63009 14.7073 7.35681 14.8136 7.17606 14.9344C6.94858 15.0864 6.75326 15.2817 6.60127 15.5092C6.48049 15.69 6.37413 15.9632 6.31397 16.5547C6.25167 17.167 6.25016 17.9702 6.25016 19.1666V35.4166H10.4168V14.5835ZM12.9168 35.4166H18.7502V31.6666C18.7502 30.9763 19.3098 30.4166 20.0002 30.4166C20.6905 30.4166 21.2502 30.9763 21.2502 31.6666V35.4166H27.0835V9.99998C27.0835 8.3933 27.0808 7.31403 26.9726 6.50897C26.8692 5.73987 26.6905 5.41071 26.4733 5.19351C26.2561 4.97632 25.9269 4.79761 25.1578 4.69421C24.3528 4.58597 23.2735 4.58332 21.6668 4.58332H18.3335C16.7268 4.58332 15.6475 4.58597 14.8425 4.69421C14.0734 4.79761 13.7442 4.97632 13.527 5.19351C13.3098 5.41071 13.1311 5.73987 13.0277 6.50897C12.9195 7.31403 12.9168 8.3933 12.9168 9.99998V35.4166ZM29.5835 35.4166H33.7502V19.1666C33.7502 17.9702 33.7487 17.167 33.6864 16.5547C33.6262 15.9632 33.5198 15.69 33.3991 15.5092C33.2471 15.2817 33.0517 15.0864 32.8243 14.9344C32.6435 14.8136 32.3702 14.7073 31.7788 14.6471C31.2404 14.5924 30.5545 14.5846 29.5835 14.5835V35.4166ZM15.4168 8.33332C15.4168 7.64296 15.9765 7.08332 16.6668 7.08332H23.3335C24.0239 7.08332 24.5835 7.64296 24.5835 8.33332C24.5835 9.02367 24.0239 9.58332 23.3335 9.58332H16.6668C15.9765 9.58332 15.4168 9.02367 15.4168 8.33332ZM15.4168 13.3333C15.4168 12.643 15.9765 12.0833 16.6668 12.0833H23.3335C24.0239 12.0833 24.5835 12.643 24.5835 13.3333C24.5835 14.0237 24.0239 14.5833 23.3335 14.5833H16.6668C15.9765 14.5833 15.4168 14.0237 15.4168 13.3333ZM15.4168 18.3333C15.4168 17.643 15.9765 17.0833 16.6668 17.0833H23.3335C24.0239 17.0833 24.5835 17.643 24.5835 18.3333C24.5835 19.0237 24.0239 19.5833 23.3335 19.5833H16.6668C15.9765 19.5833 15.4168 19.0237 15.4168 18.3333ZM15.4168 23.3333C15.4168 22.643 15.9765 22.0833 16.6668 22.0833H23.3335C24.0239 22.0833 24.5835 22.643 24.5835 23.3333C24.5835 24.0237 24.0239 24.5833 23.3335 24.5833H16.6668C15.9765 24.5833 15.4168 24.0237 15.4168 23.3333Z" fill="currentColor"/>
</svg>
