<svg width="40" height="40" viewBox="0 0 40 40" fill="none" xmlns="http://www.w3.org/2000/svg">
<path fill-rule="evenodd" clip-rule="evenodd" d="M18.82 5.51365C18.1637 6.37056 17.423 7.69268 16.3471 9.62275L15.801 10.6025C15.768 10.6616 15.7355 10.7201 15.7033 10.778C15.2021 11.68 14.7791 12.4413 14.0974 12.9588C13.4084 13.4818 12.5684 13.6706 11.5922 13.89C11.5295 13.9041 11.4662 13.9183 11.4024 13.9328L10.3418 14.1727C8.24957 14.6461 6.82626 14.9718 5.85137 15.356C4.90003 15.7309 4.69922 16.0381 4.62268 16.2842C4.5419 16.544 4.53949 16.9414 5.10823 17.8448C5.68548 18.7618 6.65931 19.9055 8.08352 21.571L8.80656 22.4165C8.84858 22.4656 8.89022 22.5142 8.93144 22.5623C9.60312 23.3458 10.1632 23.9991 10.4201 24.8252C10.6754 25.6463 10.5908 26.5092 10.4882 27.5554C10.4819 27.6195 10.4755 27.6844 10.4692 27.75L10.3599 28.8781C10.1447 31.0984 9.99963 32.6271 10.0487 33.7284C10.0977 34.8276 10.3298 35.1315 10.5144 35.2716C10.6786 35.3962 10.9821 35.5342 11.9708 35.2509C12.9756 34.963 14.311 34.352 16.27 33.45L17.2631 32.9928C17.3242 32.9646 17.3848 32.9366 17.4448 32.9089C18.3528 32.4891 19.1406 32.1249 20 32.1249C20.8595 32.1249 21.6472 32.4891 22.5552 32.9089C22.6153 32.9366 22.6758 32.9646 22.737 32.9928L23.73 33.45C25.6891 34.352 27.0245 34.963 28.0293 35.2509C29.018 35.5342 29.3215 35.3962 29.4856 35.2716C29.6702 35.1315 29.9024 34.8276 29.9514 33.7284C30.0004 32.6271 29.8553 31.0984 29.6402 28.8781L29.5309 27.75C29.5245 27.6844 29.5182 27.6196 29.5119 27.5554C29.4093 26.5092 29.3246 25.6463 29.58 24.8252C29.8369 23.999 30.3969 23.3458 31.0686 22.5622C31.1098 22.5142 31.1515 22.4656 31.1935 22.4165L31.9165 21.571C33.3407 19.9055 34.3146 18.7618 34.8918 17.8448C35.4606 16.9414 35.4582 16.544 35.3774 16.2842C35.3008 16.0381 35.1 15.7309 34.1487 15.356C33.1738 14.9718 31.7505 14.6461 29.6583 14.1727L28.5977 13.9328C28.5338 13.9183 28.4705 13.9041 28.4078 13.89C27.4316 13.6706 26.5917 13.4818 25.9026 12.9588C25.221 12.4413 24.7979 11.68 24.2967 10.778C24.2645 10.7201 24.232 10.6616 24.1991 10.6025L23.6529 9.62275C22.577 7.69268 21.8363 6.37056 21.1801 5.51365C20.5245 4.65755 20.1896 4.5835 20 4.5835C19.8104 4.5835 19.4756 4.65755 18.82 5.51365ZM16.8351 3.99366C17.6296 2.95621 18.6115 2.0835 20 2.0835C21.3885 2.0835 22.3705 2.95621 23.1649 3.99366C23.9456 5.01304 24.7734 6.4981 25.7851 8.3131L26.3827 9.38526C27.037 10.5589 27.2043 10.8082 27.4143 10.9676C27.6163 11.121 27.877 11.2065 29.1494 11.4944L30.3161 11.7584C32.2755 12.2016 33.8897 12.5668 35.0653 13.0301C36.2856 13.511 37.3535 14.2198 37.7646 15.5419C38.1715 16.8503 37.7142 18.054 37.0075 19.1767C36.3208 20.2675 35.2241 21.5499 33.8844 23.1165L33.0935 24.0413C32.2318 25.0489 32.0518 25.2954 31.9672 25.5675C31.8809 25.845 31.889 26.1655 32.0192 27.5089L32.1384 28.7391C32.3413 30.8324 32.5068 32.5395 32.4489 33.8397C32.3899 35.1629 32.0894 36.4337 30.9972 37.2628C29.8847 38.1074 28.5903 38.0122 27.3406 37.6542C26.129 37.307 24.6184 36.6114 22.7842 35.7668L21.6914 35.2637C20.4959 34.7132 20.2399 34.6249 20 34.6249C19.7601 34.6249 19.5042 34.7132 18.3086 35.2637L17.2159 35.7668C15.3816 36.6114 13.8711 37.307 12.6594 37.6541C11.4098 38.0122 10.1153 38.1074 9.0028 37.2628C7.91067 36.4337 7.61012 35.1629 7.55117 33.8397C7.49325 32.5395 7.65872 30.8324 7.86162 28.739L7.98083 27.5089C8.111 26.1655 8.11911 25.845 8.03285 25.5675C7.94823 25.2954 7.76823 25.0489 6.90656 24.0413L6.11575 23.1165C4.776 21.5499 3.67921 20.2675 2.99254 19.1767C2.28582 18.054 1.82856 16.8503 2.23544 15.5419C2.64656 14.2198 3.71444 13.511 4.93476 13.0301C6.11036 12.5668 7.72457 12.2016 9.68396 11.7584L9.79007 11.7344L10.8507 11.4944C12.123 11.2065 12.3837 11.121 12.5858 10.9676C12.7957 10.8082 12.9631 10.5589 13.6173 9.38526L14.215 8.31309C15.2267 6.4981 16.0545 5.01304 16.8351 3.99366Z" fill="currentColor"/>
</svg>
