<svg width="40" height="40" viewBox="0 0 40 40" fill="none" xmlns="http://www.w3.org/2000/svg">
<path fill-rule="evenodd" clip-rule="evenodd" d="M19.9378 2.0835H20.0621C21.8786 2.08348 23.3288 2.08347 24.4955 2.19192C25.6938 2.30331 26.7164 2.53731 27.6369 3.08238C28.7402 3.73575 29.6526 4.67315 30.2854 5.79725C30.8108 6.73072 31.0367 7.76686 31.1446 8.98776C31.25 10.18 31.25 11.6637 31.25 13.5304V14.1643C31.829 13.8988 32.4726 13.7502 33.1578 13.7502C35.8608 13.7502 37.9166 16.0627 37.9166 18.7429V26.4287C37.9166 26.4875 37.9166 26.5455 37.9166 26.6028C37.9169 28.2069 37.917 29.2151 37.7322 30.0785C37.1666 32.722 35.3524 34.891 32.9166 35.798V36.6668C32.9166 37.3572 32.357 37.9168 31.6666 37.9168C30.9763 37.9168 30.4166 37.3572 30.4166 36.6668V36.2362C29.9527 36.2504 29.428 36.2503 28.8162 36.2502C28.7553 36.2502 28.6935 36.2502 28.6309 36.2502H11.369C11.3064 36.2502 11.2446 36.2502 11.1837 36.2502C9.71367 36.2505 8.74683 36.2507 7.91662 36.0523V36.6668C7.91662 37.3572 7.35697 37.9168 6.66662 37.9168C5.97626 37.9168 5.41662 37.3572 5.41662 36.6668V35.0002C5.41662 34.973 5.41749 34.946 5.4192 34.9192C3.83593 33.8034 2.69518 32.0765 2.26765 30.0785C2.08289 29.2151 2.08304 28.2069 2.08327 26.6028C2.08328 26.5455 2.08328 26.4875 2.08328 26.4287V18.7429C2.08328 16.0627 4.13909 13.7502 6.84206 13.7502C7.52726 13.7502 8.17087 13.8988 8.74995 14.1643V13.5304C8.74994 11.6637 8.74993 10.18 8.85528 8.98776C8.96317 7.76686 9.18906 6.73072 9.71452 5.79725C10.3473 4.67315 11.2597 3.73575 12.363 3.08238C13.2835 2.53731 14.3061 2.30331 15.5044 2.19192C16.6711 2.08347 18.1213 2.08348 19.9378 2.0835ZM11.1686 16.6668C11.4472 17.3049 11.6008 18.0101 11.6008 18.7429V25.9724H28.3991V18.7429C28.3991 18.0101 28.5527 17.3049 28.8313 16.6668H28.75V13.5899C28.75 11.6503 28.7488 10.2771 28.6543 9.20783C28.5612 8.15457 28.3852 7.51813 28.1068 7.02359C27.6864 6.27669 27.0839 5.66038 26.363 5.23353C25.8912 4.95415 25.283 4.77591 24.2641 4.68119C23.2267 4.58476 21.8928 4.5835 20 4.5835C18.1071 4.5835 16.7732 4.58476 15.7358 4.68119C14.7169 4.77591 14.1087 4.95415 13.6369 5.23353C12.916 5.66038 12.3135 6.27669 11.8931 7.02359C11.6147 7.51813 11.4387 8.15457 11.3456 9.20783C11.2511 10.2771 11.25 11.6503 11.25 13.5899V16.6668H11.1686ZM6.84206 16.2502C5.66934 16.2502 4.58328 17.289 4.58328 18.7429V26.4287C4.58328 28.264 4.59027 28.9851 4.71232 29.5554C5.15377 31.6185 6.64816 33.1705 8.48822 33.6185C8.99238 33.7412 9.63613 33.7502 11.369 33.7502H28.6309C30.3638 33.7502 31.0075 33.7412 31.5117 33.6185C33.3517 33.1705 34.8461 31.6185 35.2876 29.5554C35.4096 28.9851 35.4166 28.264 35.4166 26.4287V18.7429C35.4166 17.289 34.3306 16.2502 33.1578 16.2502C31.9851 16.2502 30.8991 17.289 30.8991 18.7429V27.2224C30.8991 27.9127 30.3394 28.4724 29.6491 28.4724H10.3508C9.66047 28.4724 9.10083 27.9127 9.10083 27.2224V18.7429C9.10083 17.289 8.01477 16.2502 6.84206 16.2502Z" fill="currentColor"/>
</svg>
