<svg width="40" height="40" viewBox="0 0 40 40" fill="none" xmlns="http://www.w3.org/2000/svg">
<path fill-rule="evenodd" clip-rule="evenodd" d="M20 2.0835C15.6277 2.0835 12.0833 5.62791 12.0833 10.0002C12.0833 14.3724 15.6277 17.9168 20 17.9168C24.3722 17.9168 27.9166 14.3724 27.9166 10.0002C27.9166 5.62791 24.3722 2.0835 20 2.0835ZM14.5833 10.0002C14.5833 7.00862 17.0084 4.5835 20 4.5835C22.9915 4.5835 25.4166 7.00862 25.4166 10.0002C25.4166 12.9917 22.9915 15.4168 20 15.4168C17.0084 15.4168 14.5833 12.9917 14.5833 10.0002Z" fill="currentColor"/>
<path d="M30 5.41683C29.3096 5.41683 28.75 5.97647 28.75 6.66683C28.75 7.35719 29.3096 7.91683 30 7.91683C32.2941 7.91683 33.75 9.42638 33.75 10.8335C33.75 12.2406 32.2941 13.7502 30 13.7502C29.3096 13.7502 28.75 14.3098 28.75 15.0002C28.75 15.6905 29.3096 16.2502 30 16.2502C33.2287 16.2502 36.25 14.0288 36.25 10.8335C36.25 7.63824 33.2287 5.41683 30 5.41683Z" fill="currentColor"/>
<path d="M11.25 6.66683C11.25 5.97647 10.6903 5.41683 9.99996 5.41683C6.77125 5.41683 3.74996 7.63824 3.74996 10.8335C3.74996 14.0288 6.77125 16.2502 9.99996 16.2502C10.6903 16.2502 11.25 15.6905 11.25 15.0002C11.25 14.3098 10.6903 13.7502 9.99996 13.7502C7.70582 13.7502 6.24996 12.2406 6.24996 10.8335C6.24996 9.42638 7.70582 7.91683 9.99996 7.91683C10.6903 7.91683 11.25 7.35719 11.25 6.66683Z" fill="currentColor"/>
<path fill-rule="evenodd" clip-rule="evenodd" d="M20 20.4168C17.0262 20.4168 14.2774 21.2181 12.2355 22.5794C10.2024 23.9348 8.74996 25.9446 8.74996 28.3335C8.74996 30.7224 10.2024 32.7322 12.2355 34.0876C14.2774 35.4488 17.0262 36.2502 20 36.2502C22.9737 36.2502 25.7225 35.4488 27.7644 34.0876C29.7975 32.7322 31.25 30.7224 31.25 28.3335C31.25 25.9446 29.7975 23.9348 27.7644 22.5794C25.7225 21.2181 22.9737 20.4168 20 20.4168ZM11.25 28.3335C11.25 27.0405 12.0361 25.717 13.6223 24.6595C15.1997 23.6079 17.4509 22.9168 20 22.9168C22.549 22.9168 24.8002 23.6079 26.3777 24.6595C27.9638 25.717 28.75 27.0405 28.75 28.3335C28.75 29.6265 27.9638 30.95 26.3777 32.0075C24.8002 33.0591 22.549 33.7502 20 33.7502C17.4509 33.7502 15.1997 33.0591 13.6223 32.0075C12.0361 30.95 11.25 29.6265 11.25 28.3335Z" fill="currentColor"/>
<path d="M32.1123 23.0657C32.2602 22.3914 32.9267 21.9646 33.601 22.1125C35.2042 22.4641 36.6488 23.0991 37.7213 23.9767C38.7929 24.8536 39.5833 26.0589 39.5833 27.5002C39.5833 28.9414 38.7929 30.1468 37.7213 31.0236C36.6488 31.9013 35.2042 32.5363 33.601 32.8878C32.9267 33.0357 32.2602 32.6089 32.1123 31.9346C31.9644 31.2603 32.3912 30.5937 33.0655 30.4458C34.3861 30.1562 35.4415 29.6588 36.1381 29.0888C36.8356 28.5181 37.0833 27.9607 37.0833 27.5002C37.0833 27.0397 36.8356 26.4822 36.1381 25.9115C35.4415 25.3415 34.3861 24.8441 33.0655 24.5545C32.3912 24.4066 31.9644 23.7401 32.1123 23.0657Z" fill="currentColor"/>
<path d="M6.39887 22.1125C7.0732 21.9646 7.73974 22.3914 7.88761 23.0657C8.03549 23.7401 7.60871 24.4066 6.93438 24.5545C5.61377 24.8441 4.55838 25.3415 3.86183 25.9115C3.16434 26.4822 2.91663 27.0397 2.91663 27.5002C2.91663 27.9607 3.16434 28.5181 3.86183 29.0888C4.55838 29.6588 5.61377 30.1562 6.93438 30.4458C7.60871 30.5937 8.03549 31.2603 7.88761 31.9346C7.73974 32.6089 7.0732 33.0357 6.39887 32.8878C4.79573 32.5363 3.35113 31.9013 2.27861 31.0236C1.20704 30.1468 0.416626 28.9414 0.416626 27.5002C0.416626 26.0589 1.20704 24.8536 2.27861 23.9767C3.35113 23.0991 4.79573 22.4641 6.39887 22.1125Z" fill="currentColor"/>
</svg>
