<svg width="40" height="40" viewBox="0 0 40 40" fill="none" xmlns="http://www.w3.org/2000/svg">
<path fill-rule="evenodd" clip-rule="evenodd" d="M17.6559 3.86488C19.1383 3.15637 20.8616 3.15637 22.3439 3.86488C22.9879 4.17269 23.578 4.67602 24.3951 5.37295C24.4375 5.40913 24.4805 5.44582 24.5242 5.48304C24.921 5.8212 25.0459 5.92517 25.1724 6.00992C25.494 6.22548 25.8552 6.37508 26.235 6.45008C26.3844 6.47956 26.5462 6.4944 27.0659 6.53587C27.1231 6.54044 27.1795 6.54491 27.2351 6.54932C28.3056 6.63427 29.0788 6.69562 29.7518 6.93334C31.301 7.48053 32.5196 8.69907 33.0667 10.2483C33.3045 10.9213 33.3658 11.6944 33.4508 12.765C33.4552 12.8206 33.4596 12.8769 33.4642 12.9341C33.5057 13.4538 33.5205 13.6157 33.55 13.7651C33.625 14.1449 33.7746 14.5061 33.9902 14.8277C34.0749 14.9541 34.1789 15.0791 34.517 15.4759C34.5543 15.5196 34.591 15.5626 34.6272 15.6051C35.3241 16.4221 35.8274 17.0122 36.1352 17.6562C36.8437 19.1385 36.8437 20.8618 36.1352 22.3442C35.8274 22.9881 35.3241 23.5782 34.6272 24.3953C34.591 24.4377 34.5543 24.4807 34.517 24.5244C34.1789 24.9212 34.0749 25.0462 33.9902 25.1726C33.7746 25.4942 33.625 25.8554 33.55 26.2353C33.5205 26.3846 33.5057 26.5465 33.4642 27.0662C33.4596 27.1234 33.4552 27.1798 33.4508 27.2353C33.3658 28.3059 33.3045 29.0791 33.0667 29.7521C32.5196 31.3013 31.301 32.5198 29.7518 33.067C29.0788 33.3047 28.3056 33.3661 27.2351 33.451C27.1795 33.4554 27.1231 33.4599 27.0659 33.4645C26.5463 33.5059 26.3844 33.5208 26.235 33.5503C25.8552 33.6252 25.494 33.7749 25.1724 33.9904C25.0459 34.0752 24.921 34.1791 24.5242 34.5173C24.4805 34.5545 24.4375 34.5912 24.3951 34.6274C23.578 35.3243 22.9879 35.8276 22.3439 36.1354C20.8616 36.844 19.1383 36.844 17.6559 36.1354C17.0119 35.8276 16.4218 35.3243 15.6048 34.6274C15.5624 34.5912 15.5193 34.5545 15.4757 34.5173C15.0789 34.1791 14.9539 34.0752 14.8274 33.9904C14.5058 33.7749 14.1447 33.6252 13.7648 33.5503C13.6155 33.5208 13.4536 33.5059 12.9339 33.4645C12.8767 33.4599 12.8203 33.4554 12.7648 33.451C11.6942 33.3661 10.921 33.3047 10.248 33.067C8.69883 32.5198 7.48028 31.3013 6.93309 29.7521C6.69538 29.0791 6.63403 28.3059 6.54908 27.2353C6.54467 27.1798 6.54019 27.1234 6.53563 27.0662C6.49416 26.5465 6.47931 26.3846 6.44983 26.2353C6.37484 25.8554 6.22523 25.4942 6.00967 25.1726C5.92492 25.0462 5.82095 24.9212 5.48279 24.5244C5.44558 24.4807 5.40888 24.4377 5.37271 24.3953C4.67577 23.5782 4.17244 22.9882 3.86464 22.3442C3.15612 20.8618 3.15612 19.1385 3.86464 17.6562C4.17244 17.0122 4.67577 16.4221 5.3727 15.605C5.40888 15.5626 5.44557 15.5196 5.48279 15.4759C5.82095 15.0791 5.92492 14.9541 6.00967 14.8277C6.22523 14.5061 6.37484 14.1449 6.44983 13.7651C6.47931 13.6157 6.49416 13.4538 6.53563 12.9341C6.54019 12.8769 6.54467 12.8206 6.54908 12.765C6.63403 11.6944 6.69538 10.9213 6.93309 10.2483C7.48028 8.69907 8.69883 7.48053 10.248 6.93334C10.921 6.69562 11.6942 6.63427 12.7648 6.54932C12.8203 6.54491 12.8767 6.54044 12.9339 6.53587C13.4536 6.4944 13.6155 6.47956 13.7648 6.45008C14.1447 6.37508 14.5058 6.22548 14.8274 6.00992C14.9539 5.92517 15.0789 5.82119 15.4757 5.48304C15.5193 5.44582 15.5624 5.40912 15.6048 5.37295C16.4218 4.67601 17.0119 4.17269 17.6559 3.86488ZM21.2621 6.12832C20.4639 5.74681 19.536 5.74681 18.7378 6.12832C18.4292 6.27582 18.1039 6.53936 17.1028 7.39244C17.0864 7.40646 17.0702 7.42028 17.0542 7.43393C16.7257 7.714 16.4858 7.91845 16.2242 8.09382C15.6269 8.49415 14.9561 8.772 14.2507 8.91126C13.9417 8.97228 13.6275 8.99728 13.1972 9.03154C13.1762 9.03321 13.155 9.0349 13.1335 9.03662C11.8224 9.14124 11.406 9.1849 11.0835 9.29881C10.2493 9.59345 9.59321 10.2496 9.29857 11.0838C9.18466 11.4063 9.141 11.8226 9.03637 13.1337C9.03466 13.1552 9.03297 13.1765 9.0313 13.1974C8.99704 13.6278 8.97203 13.9419 8.91102 14.251C8.77175 14.9564 8.49391 15.6271 8.09358 16.2244C7.9182 16.4861 7.71376 16.7259 7.43368 17.0544C7.42003 17.0704 7.40621 17.0867 7.3922 17.1031C6.53911 18.1041 6.27557 18.4294 6.12808 18.738C5.74657 19.5362 5.74657 20.4641 6.12808 21.2623C6.27557 21.5709 6.53911 21.8962 7.3922 22.8972C7.40621 22.9137 7.42004 22.9299 7.43369 22.9459C7.71376 23.2744 7.9182 23.5142 8.09358 23.7759C8.49391 24.3732 8.77175 25.044 8.91102 25.7494C8.97203 26.0584 8.99704 26.3725 9.0313 26.8029C9.03297 26.8239 9.03466 26.8451 9.03637 26.8666C9.141 28.1777 9.18466 28.5941 9.29857 28.9166C9.59321 29.7507 10.2493 30.4069 11.0835 30.7015C11.406 30.8154 11.8224 30.8591 13.1335 30.9637L13.1972 30.9688C13.6275 31.003 13.9417 31.0281 14.2507 31.0891C14.9561 31.2283 15.6269 31.5062 16.2242 31.9065C16.4859 32.0819 16.7257 32.2863 17.0542 32.5664L17.1028 32.6079C18.1039 33.461 18.4292 33.7245 18.7378 33.872C19.536 34.2535 20.4639 34.2535 21.2621 33.872C21.5707 33.7245 21.8959 33.461 22.897 32.6079L22.9457 32.5664C23.2742 32.2863 23.514 32.0819 23.7757 31.9065C24.3729 31.5062 25.0437 31.2283 25.7491 31.0891C26.0582 31.0281 26.3723 31.003 26.8027 30.9688L26.8664 30.9637C28.1775 30.8591 28.5938 30.8154 28.9163 30.7015C29.7505 30.4069 30.4066 29.7507 30.7013 28.9166C30.8152 28.5941 30.8588 28.1777 30.9635 26.8666L30.9685 26.8029C31.0028 26.3725 31.0278 26.0584 31.0888 25.7494C31.2281 25.044 31.5059 24.3732 31.9063 23.7759C32.0816 23.5142 32.2861 23.2744 32.5661 22.9459L32.6076 22.8972C33.4607 21.8962 33.7243 21.5709 33.8718 21.2623C34.2533 20.4641 34.2533 19.5362 33.8718 18.738C33.7243 18.4294 33.4607 18.1041 32.6076 17.1031L32.5661 17.0544C32.2861 16.7259 32.0816 16.4861 31.9063 16.2244C31.5059 15.6271 31.2281 14.9564 31.0888 14.251C31.0278 13.9419 31.0028 13.6278 30.9685 13.1974L30.9635 13.1337C30.8588 11.8226 30.8152 11.4063 30.7013 11.0838C30.4066 10.2496 29.7505 9.59345 28.9163 9.29881C28.5938 9.1849 28.1775 9.14124 26.8664 9.03662C26.8449 9.0349 26.8236 9.03321 26.8026 9.03154C26.3723 8.99728 26.0582 8.97228 25.7491 8.91126C25.0437 8.772 24.3729 8.49415 23.7757 8.09382C23.514 7.91844 23.2742 7.714 22.9457 7.43392C22.9296 7.42027 22.9134 7.40645 22.897 7.39244C21.8959 6.53936 21.5707 6.27582 21.2621 6.12832ZM26.7405 14.932C27.2303 15.4219 27.2303 16.2161 26.7405 16.706L18.3782 25.0683C17.8883 25.5581 17.0941 25.5581 16.6043 25.0683L13.2593 21.7234C12.7695 21.2335 12.7695 20.4393 13.2593 19.9494C13.7492 19.4596 14.5434 19.4596 15.0333 19.9494L17.4912 22.4074L24.9666 14.932C25.4564 14.4422 26.2506 14.4422 26.7405 14.932Z" fill="currentColor"/>
</svg>
