<svg width="16" height="16" viewBox="0 0 16 16" fill="none" xmlns="http://www.w3.org/2000/svg">
<path fill-rule="evenodd" clip-rule="evenodd" d="M7.99996 1.33337C5.05444 1.33337 2.66663 4.00176 2.66663 7.00004C2.66663 9.97482 4.36884 13.2083 7.02467 14.4497C7.64379 14.7391 8.35613 14.7391 8.97525 14.4497C11.6311 13.2083 13.3333 9.97482 13.3333 7.00004C13.3333 4.00176 10.9455 1.33337 7.99996 1.33337ZM7.99996 8.00004C8.73634 8.00004 9.33329 7.40309 9.33329 6.66671C9.33329 5.93033 8.73634 5.33337 7.99996 5.33337C7.26358 5.33337 6.66663 5.93033 6.66663 6.66671C6.66663 7.40309 7.26358 8.00004 7.99996 8.00004Z" fill="currentColor"/>
</svg>
