<svg width="40" height="40" viewBox="0 0 40 40" fill="none" xmlns="http://www.w3.org/2000/svg">
<path fill-rule="evenodd" clip-rule="evenodd" d="M31.6668 4.58331C29.5958 4.58331 27.9168 6.26225 27.9168 8.33331C27.9168 10.4044 29.5958 12.0833 31.6668 12.0833C33.7379 12.0833 35.4168 10.4044 35.4168 8.33331C35.4168 6.26225 33.7379 4.58331 31.6668 4.58331ZM25.4168 8.33331C25.4168 4.88153 28.215 2.08331 31.6668 2.08331C35.1186 2.08331 37.9168 4.88153 37.9168 8.33331C37.9168 11.7851 35.1186 14.5833 31.6668 14.5833C28.215 14.5833 25.4168 11.7851 25.4168 8.33331ZM16.5728 5.41665L21.6668 5.41665C22.3572 5.41665 22.9168 5.97629 22.9168 6.66665C22.9168 7.357 22.3572 7.91665 21.6668 7.91665H16.6668C13.4888 7.91665 11.231 7.9193 9.51824 8.14958C7.84143 8.37502 6.87535 8.7978 6.17 9.50315C5.46465 10.2085 5.04187 11.1746 4.81643 12.8514C4.58615 14.5642 4.5835 16.8219 4.5835 20C4.5835 23.178 4.58615 25.4358 4.81643 27.1486C5.04187 28.8254 5.46465 29.7915 6.17 30.4968C6.87535 31.2022 7.84143 31.6249 9.51824 31.8504C11.231 32.0807 13.4888 32.0833 16.6668 32.0833H23.3335C26.5115 32.0833 28.7693 32.0807 30.4821 31.8504C32.1589 31.6249 33.125 31.2022 33.8303 30.4968C34.5357 29.7915 34.9585 28.8254 35.1839 27.1486C35.4142 25.4358 35.4168 23.178 35.4168 20C35.4168 19.3784 35.4213 18.9244 35.4252 18.534C35.4314 17.902 35.436 17.437 35.4172 16.6984C35.3997 16.0083 35.9449 15.4346 36.6351 15.417C37.3252 15.3995 37.8989 15.9448 37.9164 16.6349C37.9362 17.4117 37.9311 17.9419 37.9247 18.612C37.921 19.002 37.9168 19.4392 37.9168 20V20.094C37.9169 23.1569 37.9169 25.583 37.6616 27.4817C37.3989 29.4357 36.8454 31.0173 35.5981 32.2646C34.3508 33.5118 32.7692 34.0654 30.8152 34.3281C28.9165 34.5834 26.4905 34.5833 23.4275 34.5833H16.5728C13.5099 34.5833 11.0838 34.5834 9.18512 34.3281C7.23109 34.0654 5.64951 33.5118 4.40224 32.2646C3.15496 31.0173 2.60143 29.4357 2.33872 27.4817C2.08345 25.583 2.08347 23.1569 2.0835 20.094V19.906C2.08347 16.843 2.08345 14.417 2.33872 12.5183C2.60143 10.5642 3.15496 8.98266 4.40224 7.73538C5.64951 6.48811 7.23109 5.93458 9.18513 5.67187C11.0838 5.4166 13.5099 5.41662 16.5728 5.41665ZM9.03989 12.5331C9.48184 12.0027 10.27 11.9311 10.8004 12.373L14.3986 15.3715C15.9535 16.6673 17.033 17.564 17.9445 18.1502C18.8267 18.7176 19.425 18.9081 20.0002 18.9081C20.5753 18.9081 21.1736 18.7176 22.0559 18.1502C22.9673 17.564 24.0468 16.6673 25.6018 15.3715C26.1321 14.9295 26.9203 15.0012 27.3623 15.5315C27.8042 16.0619 27.7326 16.8501 27.2022 17.2921L27.1396 17.3442C25.6623 18.5753 24.465 19.5732 23.4082 20.2529C22.3074 20.9609 21.2353 21.4081 20.0002 21.4081C18.765 21.4081 17.693 20.9609 16.5921 20.2529C15.5354 19.5732 14.338 18.5754 12.8608 17.3443L9.19993 14.2936C8.66959 13.8516 8.59793 13.0634 9.03989 12.5331Z" fill="currentColor"/>
</svg>
