<svg width="30" height="30" viewBox="0 0 30 30" fill="none" xmlns="http://www.w3.org/2000/svg">
<path fill-rule="evenodd" clip-rule="evenodd" d="M25.9375 8.75C25.9375 9.26777 25.5178 9.6875 25 9.6875L5 9.6875C4.48223 9.6875 4.0625 9.26777 4.0625 8.75C4.0625 8.23223 4.48223 7.8125 5 7.8125L25 7.8125C25.5178 7.8125 25.9375 8.23223 25.9375 8.75Z" fill="currentColor"/>
<path fill-rule="evenodd" clip-rule="evenodd" d="M25.9375 15C25.9375 15.5178 25.5178 15.9375 25 15.9375L5 15.9375C4.48223 15.9375 4.0625 15.5178 4.0625 15C4.0625 14.4822 4.48223 14.0625 5 14.0625L25 14.0625C25.5178 14.0625 25.9375 14.4822 25.9375 15Z" fill="currentColor"/>
<path fill-rule="evenodd" clip-rule="evenodd" d="M25.9375 21.25C25.9375 21.7678 25.5178 22.1875 25 22.1875L5 22.1875C4.48223 22.1875 4.0625 21.7678 4.0625 21.25C4.0625 20.7322 4.48223 20.3125 5 20.3125L25 20.3125C25.5178 20.3125 25.9375 20.7322 25.9375 21.25Z" fill="currentColor"/>
</svg>
