<svg width="24" height="24" viewBox="0 0 24 24" fill="none" xmlns="http://www.w3.org/2000/svg">
<path fill-rule="evenodd" clip-rule="evenodd" d="M12.1969 21.0798C10.3967 21.0798 9.56012 20.817 8.10599 19.7658C7.18619 20.9484 4.27353 21.8726 4.14649 20.2914C4.14649 19.1044 3.88369 18.1014 3.58585 17.0064C3.23109 15.6574 2.82812 14.1551 2.82812 11.9782C2.82812 6.77922 7.09422 2.86792 12.1487 2.86792C17.2076 2.86792 21.1714 6.97194 21.1714 12.0264C21.1884 17.0027 17.1731 21.0532 12.1969 21.0798ZM12.2713 7.36175C9.8098 7.23474 7.89136 8.93855 7.46651 11.6103C7.11611 13.8222 7.73807 16.5159 8.26804 16.656C8.52208 16.7174 9.16156 16.2005 9.56012 15.802C10.2192 16.2573 10.9867 16.5307 11.7852 16.5947C14.3357 16.7174 16.5151 14.7757 16.6863 12.2279C16.786 9.67475 14.8222 7.51226 12.2713 7.36614V7.36175Z" fill="currentColor"/>
</svg>
