<svg width="40" height="40" viewBox="0 0 40 40" fill="none" xmlns="http://www.w3.org/2000/svg">
<path d="M22.0992 3.13358C22.2095 2.4521 22.8538 1.98981 23.5352 2.10014C23.5774 2.10821 23.7131 2.13358 23.7843 2.14942C23.9265 2.18109 24.1249 2.22985 24.3722 2.30189C24.8668 2.44597 25.5578 2.68331 26.3872 3.06353C28.0477 3.82479 30.2573 5.15647 32.5503 7.44947C34.8433 9.74247 36.175 11.9522 36.9363 13.6126C37.3165 14.442 37.5538 15.133 37.6979 15.6276C37.77 15.875 37.8187 16.0733 37.8504 16.2156C37.8662 16.2867 37.8778 16.3438 37.8859 16.3859L37.8955 16.4379C38.0058 17.1194 37.5477 17.7903 36.8662 17.9006C36.1867 18.0106 35.5465 17.5506 35.4335 16.8723C35.43 16.8541 35.4205 16.8051 35.4102 16.759C35.3896 16.6667 35.354 16.5203 35.2977 16.3267C35.1849 15.9395 34.989 15.364 34.6637 14.6545C34.014 13.2373 32.8457 11.2803 30.7826 9.21723C28.7195 7.15413 26.7625 5.98581 25.3453 5.33609C24.6359 5.01083 24.0603 4.81494 23.6731 4.70215C23.4795 4.64576 23.2362 4.58991 23.1439 4.56935C22.4656 4.45632 21.9892 3.81312 22.0992 3.13358Z" fill="currentColor"/>
<path fill-rule="evenodd" clip-rule="evenodd" d="M22.4763 8.88269C22.6659 8.2189 23.3578 7.83453 24.0216 8.02419L23.6782 9.22609C24.0216 8.02419 24.0216 8.02419 24.0216 8.02419L24.024 8.02487L24.0265 8.02561L24.0321 8.02724L24.045 8.03109L24.078 8.04137C24.1031 8.0494 24.1345 8.05987 24.1719 8.07315C24.2468 8.09971 24.3457 8.13748 24.467 8.18949C24.7099 8.29355 25.0416 8.45425 25.4492 8.69543C26.2649 9.17824 27.3786 9.9802 28.6869 11.2885C29.9951 12.5968 30.7971 13.7104 31.2799 14.5262C31.5211 14.9337 31.6818 15.2655 31.7859 15.5083C31.8379 15.6296 31.8756 15.7286 31.9022 15.8034C31.9155 15.8408 31.9259 15.8722 31.934 15.8973L31.9442 15.9303L31.9481 15.9432L31.9497 15.9488L31.9505 15.9514C31.9505 15.9514 31.9512 15.9538 30.7492 16.2972L31.9512 15.9538C32.1408 16.6175 31.7564 17.3094 31.0927 17.4991C30.4345 17.6871 29.7487 17.3108 29.5523 16.6574L29.5461 16.6394C29.5372 16.6144 29.5189 16.5651 29.488 16.4931C29.4263 16.3492 29.3145 16.1138 29.1285 15.7995C28.7568 15.1716 28.0857 14.2228 26.9191 13.0563C25.7525 11.8897 24.8037 11.2185 24.1758 10.8469C23.8615 10.6608 23.6261 10.549 23.4823 10.4873C23.4102 10.4565 23.3609 10.4381 23.3359 10.4292L23.3179 10.4231C22.6645 10.2266 22.2882 9.54085 22.4763 8.88269Z" fill="currentColor"/>
<path fill-rule="evenodd" clip-rule="evenodd" d="M8.34559 7.34485C11.1457 4.54474 15.8709 4.7576 17.8206 8.25114L18.9023 10.1894C20.1755 12.4707 19.633 15.3492 17.7691 17.2358C17.7443 17.2698 17.6127 17.4614 17.5963 17.7961C17.5754 18.2233 17.7272 19.2112 19.2579 20.7419C20.7881 22.2722 21.7759 22.4242 22.2033 22.4035C22.5383 22.3872 22.73 22.2555 22.764 22.2307C24.6506 20.3668 27.5291 19.8243 29.8105 21.0975L31.7487 22.1792C35.2422 24.1289 35.4551 28.8541 32.655 31.6542C31.1572 33.152 29.1657 34.4828 26.8253 34.5715C23.3571 34.703 17.5984 33.8074 11.8954 28.1044C6.19244 22.4014 5.2968 16.6427 5.42828 13.1745C5.517 10.8341 6.84782 8.84262 8.34559 7.34485ZM15.6376 9.46946C14.6392 7.68056 11.9564 7.26957 10.1134 9.11262C8.82111 10.4049 7.981 11.8312 7.92648 13.2692C7.81684 16.1614 8.53091 21.2043 13.6632 26.3366C18.7955 31.4689 23.8384 32.183 26.7306 32.0733C28.1686 32.0188 29.5949 31.1787 30.8872 29.8865C32.7302 28.0434 32.3193 25.3606 30.5303 24.3622L28.5921 23.2805C27.3865 22.6077 25.6929 22.8372 24.5041 24.026C24.3873 24.1427 23.6439 24.8363 22.3248 24.9005C20.9744 24.9662 19.3398 24.3594 17.4901 22.5097C15.6398 20.6594 15.0332 19.0244 15.0993 17.6738C15.1639 16.3546 15.8576 15.6119 15.9737 15.4958C17.1626 14.307 17.3922 12.6134 16.7193 11.4077L15.6376 9.46946Z" fill="currentColor"/>
</svg>
