<svg width="20" height="20" viewBox="0 0 20 20" fill="none" xmlns="http://www.w3.org/2000/svg">
<path fill-rule="evenodd" clip-rule="evenodd" d="M9.18149 2.33465C5.30926 2.74351 2.29199 6.0194 2.29199 10C2.29199 14.2572 5.74313 17.7083 10.0003 17.7083C13.9809 17.7083 17.2568 14.6911 17.6657 10.8188C16.5601 12.2224 14.8442 13.125 12.917 13.125C9.58027 13.125 6.87533 10.4201 6.87533 7.08333C6.87533 5.15615 7.77795 3.44025 9.18149 2.33465ZM1.04199 10C1.04199 5.05245 5.05277 1.04167 10.0003 1.04167C10.5975 1.04167 10.8965 1.51772 10.9477 1.89689C10.997 2.26165 10.8621 2.72555 10.4429 2.97889C9.05254 3.81901 8.12533 5.34319 8.12533 7.08333C8.12533 9.7297 10.2706 11.875 12.917 11.875C14.6571 11.875 16.1813 10.9478 17.0214 9.55747C17.2748 9.1382 17.7387 9.00337 18.1034 9.05263C18.4826 9.10384 18.9587 9.40281 18.9587 10C18.9587 14.9476 14.9479 18.9583 10.0003 18.9583C5.05277 18.9583 1.04199 14.9476 1.04199 10Z" fill="currentColor"/>
</svg>
