<svg width="40" height="40" viewBox="0 0 40 40" fill="none" xmlns="http://www.w3.org/2000/svg">
<path fill-rule="evenodd" clip-rule="evenodd" d="M18.7502 3.33331C18.7502 2.64296 19.3098 2.08331 20.0002 2.08331C29.8953 2.08331 37.9168 10.1049 37.9168 20C37.9168 29.8951 29.8953 37.9166 20.0002 37.9166C10.1051 37.9166 2.0835 29.8951 2.0835 20C2.0835 19.3096 2.64314 18.75 3.3335 18.75C4.02385 18.75 4.5835 19.3096 4.5835 20C4.5835 28.5144 11.4858 35.4166 20.0002 35.4166C28.5146 35.4166 35.4168 28.5144 35.4168 20C35.4168 11.4856 28.5146 4.58331 20.0002 4.58331C19.3098 4.58331 18.7502 4.02367 18.7502 3.33331ZM20.0002 13.75C20.6905 13.75 21.2502 14.3096 21.2502 15V20.4166H26.6668C27.3572 20.4166 27.9168 20.9763 27.9168 21.6666C27.9168 22.357 27.3572 22.9166 26.6668 22.9166H20.0002C19.3098 22.9166 18.7502 22.357 18.7502 21.6666V15C18.7502 14.3096 19.3098 13.75 20.0002 13.75Z" fill="currentColor"/>
<path fill-rule="evenodd" clip-rule="evenodd" d="M15.1661 3.99588C15.4147 4.63992 15.0942 5.36355 14.4501 5.61216C14.2144 5.70316 13.9815 5.79979 13.7515 5.90189C13.1205 6.182 12.3819 5.89757 12.1018 5.2666C11.8217 4.63563 12.1061 3.89705 12.7371 3.61693C13.0046 3.49817 13.2756 3.38576 13.5498 3.2799C14.1939 3.03129 14.9175 3.35184 15.1661 3.99588ZM9.413 7.06709C9.8891 7.567 9.8698 8.35823 9.36988 8.83433C9.1871 9.0084 9.00859 9.18692 8.83451 9.3697C8.35841 9.86962 7.56719 9.88892 7.06727 9.41282C6.56735 8.93672 6.54805 8.14549 7.02415 7.64558C7.22627 7.43335 7.43354 7.22609 7.64576 7.02397C8.14568 6.54787 8.9369 6.56717 9.413 7.06709ZM5.26678 12.1016C5.89776 12.3818 6.18218 13.1203 5.90207 13.7513C5.79997 13.9813 5.70334 14.2142 5.61235 14.45C5.36373 15.094 4.6401 15.4146 3.99606 15.1659C3.35202 14.9173 3.03147 14.1937 3.28008 13.5497C3.38595 13.2754 3.49835 13.0044 3.61711 12.7369C3.89723 12.106 4.63581 11.8215 5.26678 12.1016Z" fill="currentColor"/>
</svg>
