<svg width="20" height="20" viewBox="0 0 20 20" fill="none" xmlns="http://www.w3.org/2000/svg">
<path fill-rule="evenodd" clip-rule="evenodd" d="M10.0003 1.04167C10.3455 1.04167 10.6253 1.32149 10.6253 1.66667V2.5C10.6253 2.84518 10.3455 3.125 10.0003 3.125C9.65515 3.125 9.37533 2.84518 9.37533 2.5V1.66667C9.37533 1.32149 9.65515 1.04167 10.0003 1.04167ZM3.66583 3.66551C3.90991 3.42143 4.30564 3.42143 4.54972 3.66551L4.87708 3.99287C5.12116 4.23695 5.12116 4.63268 4.87708 4.87676C4.633 5.12083 4.23728 5.12083 3.9932 4.87676L3.66583 4.54939C3.42176 4.30532 3.42176 3.90959 3.66583 3.66551ZM16.3346 3.66573C16.5787 3.9098 16.5787 4.30553 16.3346 4.54961L16.0072 4.87697C15.7632 5.12105 15.3674 5.12105 15.1234 4.87697C14.8793 4.63289 14.8793 4.23717 15.1234 3.99309L15.4507 3.66573C15.6948 3.42165 16.0905 3.42165 16.3346 3.66573ZM10.0003 5.625C7.58408 5.625 5.62533 7.58376 5.62533 10C5.62533 12.4162 7.58408 14.375 10.0003 14.375C12.4166 14.375 14.3753 12.4162 14.3753 10C14.3753 7.58376 12.4166 5.625 10.0003 5.625ZM4.37533 10C4.37533 6.8934 6.89372 4.375 10.0003 4.375C13.1069 4.375 15.6253 6.8934 15.6253 10C15.6253 13.1066 13.1069 15.625 10.0003 15.625C6.89372 15.625 4.37533 13.1066 4.37533 10ZM1.04199 10C1.04199 9.65482 1.32181 9.375 1.66699 9.375H2.50033C2.8455 9.375 3.12533 9.65482 3.12533 10C3.12533 10.3452 2.8455 10.625 2.50033 10.625H1.66699C1.32181 10.625 1.04199 10.3452 1.04199 10ZM16.8753 10C16.8753 9.65482 17.1551 9.375 17.5003 9.375H18.3337C18.6788 9.375 18.9587 9.65482 18.9587 10C18.9587 10.3452 18.6788 10.625 18.3337 10.625H17.5003C17.1551 10.625 16.8753 10.3452 16.8753 10ZM15.1234 15.123C15.3674 14.879 15.7632 14.879 16.0072 15.123L16.3346 15.4504C16.5787 15.6945 16.5787 16.0902 16.3346 16.3343C16.0905 16.5784 15.6948 16.5784 15.4507 16.3343L15.1234 16.0069C14.8793 15.7628 14.8793 15.3671 15.1234 15.123ZM4.87708 15.1232C5.12116 15.3673 5.12116 15.7631 4.87708 16.0071L4.54972 16.3345C4.30564 16.5786 3.90991 16.5786 3.66583 16.3345C3.42176 16.0904 3.42176 15.6947 3.66583 15.4506L3.9932 15.1232C4.23728 14.8792 4.633 14.8792 4.87708 15.1232ZM10.0003 16.875C10.3455 16.875 10.6253 17.1548 10.6253 17.5V18.3333C10.6253 18.6785 10.3455 18.9583 10.0003 18.9583C9.65515 18.9583 9.37533 18.6785 9.37533 18.3333V17.5C9.37533 17.1548 9.65515 16.875 10.0003 16.875Z" fill="currentColor"/>
</svg>
