<svg width="24" height="24" viewBox="0 0 24 24" fill="none" xmlns="http://www.w3.org/2000/svg">
<path d="M14.2972 11.8125C13.9222 11.6715 13.9222 11.133 13.8989 10.758C13.8052 9.42229 14.2739 7.38304 13.7114 6.51604C13.3132 6.00004 11.3909 6.04729 10.2194 6.11779C9.89091 6.16504 9.49266 6.2348 9.21141 6.3758C8.93016 6.5168 8.64891 6.75079 8.64891 6.96154C8.64891 7.26604 9.35241 7.21954 9.60966 7.61779C9.89091 8.04004 9.89091 8.95354 9.89091 9.70354C9.89091 10.5705 9.74991 11.7195 9.39891 11.766C8.85966 11.7893 8.55516 11.25 8.27391 10.8518C7.71141 10.0785 7.14891 9.11704 6.72666 8.17954C6.51591 7.68754 6.39816 7.14829 6.09366 6.93754C5.62491 6.60904 4.78116 6.58579 3.96066 6.60904C3.21066 6.63229 2.13216 6.53854 1.92141 6.98404C1.75716 7.47605 2.10891 7.94479 2.29641 8.34379C3.25716 10.4295 4.28841 12.258 5.55441 13.992C6.72666 15.609 7.82766 16.8983 9.98391 17.5778C10.5937 17.7653 13.2652 18.3045 13.8044 17.5778C13.9919 17.2965 13.9454 16.6635 14.0392 16.1948C14.1329 15.726 14.2499 15.2573 14.6954 15.234C15.0704 15.2108 15.2812 15.5385 15.5159 15.7733C15.7739 16.0313 15.9847 16.242 16.1722 16.4768C16.6177 16.9223 17.0864 17.5313 17.6489 17.766C18.4222 18.0945 19.6177 18.0008 20.7427 17.9535C21.6569 17.9303 22.3132 17.7428 22.3837 17.2035C22.4309 16.7813 21.9614 16.1723 21.6802 15.8205C20.9767 14.9535 20.6489 14.6955 19.8517 13.8983C19.4999 13.5465 19.0544 13.1715 19.0544 12.75C19.0312 12.492 19.2419 12.258 19.4294 12C20.2499 10.7813 21.0704 9.91429 21.8204 8.64829C22.0312 8.27329 22.5239 7.40629 22.3364 6.98404C22.1257 6.51529 20.9534 6.65554 20.2267 6.65554C19.2892 6.65554 18.0704 6.58504 17.8357 6.77254C17.3902 7.07704 17.2027 7.5698 16.9919 8.03855C16.5232 9.11704 15.8902 10.218 15.2339 11.0385C14.9992 11.3198 14.5544 11.9055 14.2964 11.8118L14.2972 11.8125Z" fill="currentColor"/>
</svg>
