<svg width="32" height="40" viewBox="0 0 32 40" fill="none" xmlns="http://www.w3.org/2000/svg">
<g clip-path="url(#clip0_4014_346)">
<path d="M18.9844 14.3965C18.9844 13.4698 18.2983 12.7155 17.4555 12.7155H11.418V16.0775H17.4555C18.3081 16.0775 18.9844 15.334 18.9844 14.3965Z" fill="white"/>
<path d="M25.6397 33.6314C25.5025 33.6314 25.3555 33.5991 25.228 33.556L25.1594 33.5237C24.6988 33.3513 24.2676 33.0603 23.9147 32.6832L20.0041 28.5668C25.9925 27.2306 30.501 21.4116 30.501 14.4289C30.501 6.45475 24.6204 0 17.3774 0H0V28.8686H5.77286V6.36853H17.5734C21.6212 6.36853 24.9046 9.98922 24.9046 14.4289C24.9046 18.8793 21.6114 22.4893 17.5734 22.4893H11.4281V28.8577L19.9256 37.8125L21.3565 39.0992C21.8073 39.4441 23.0228 40 23.5716 40H31.2068V33.653L25.6397 33.6314Z" fill="white"/>
</g>
<defs>
<clipPath id="clip0_4014_346">
<rect width="31.2994" height="40" fill="white"/>
</clipPath>
</defs>
</svg>
