<svg width="0" height="0" class="hidden">
  <symbol fill="none" xmlns="http://www.w3.org/2000/svg" viewBox="0 0 40 40" id="ic_address">
    <path fill-rule="evenodd" clip-rule="evenodd" d="M18.2468 2.08331H21.7535C23.251 2.08327 24.4997 2.08323 25.491 2.2165C26.5373 2.35718 27.482 2.66663 28.2411 3.42574C29.0002 4.18486 29.3096 5.12953 29.4503 6.17585C29.5836 7.16715 29.5835 8.41586 29.5835 9.91333L29.5835 12.0834C30.5444 12.0842 31.3588 12.0915 32.0318 12.16C32.8209 12.2402 33.5532 12.4148 34.2132 12.8557C34.7136 13.1901 35.1433 13.6198 35.4777 14.1203C35.9187 14.7803 36.0932 15.5126 36.1735 16.3017C36.2502 17.0556 36.2502 17.9868 36.2502 19.1028V35.4166H36.6668C37.3572 35.4166 37.9168 35.9763 37.9168 36.6666C37.9168 37.357 37.3572 37.9166 36.6668 37.9166H3.3335C2.64314 37.9166 2.0835 37.357 2.0835 36.6666C2.0835 35.9763 2.64314 35.4166 3.3335 35.4166H3.75016L3.75016 19.1027C3.75013 17.9868 3.75011 17.0556 3.8268 16.3017C3.90708 15.5126 4.0816 14.7803 4.52259 14.1203C4.85699 13.6198 5.28668 13.1901 5.78713 12.8557C6.44713 12.4148 7.17941 12.2402 7.96853 12.16C8.64155 12.0915 9.45588 12.0842 10.4168 12.0834L10.4168 9.91333C10.4168 8.41586 10.4167 7.16715 10.55 6.17585C10.6907 5.12953 11.0001 4.18486 11.7593 3.42574C12.5184 2.66663 13.463 2.35718 14.5094 2.2165C15.5007 2.08323 16.7494 2.08327 18.2468 2.08331ZM10.4168 14.5835C9.44585 14.5846 8.75992 14.5924 8.22154 14.6471C7.63009 14.7073 7.35681 14.8136 7.17606 14.9344C6.94858 15.0864 6.75326 15.2817 6.60127 15.5092C6.48049 15.69 6.37413 15.9632 6.31397 16.5547C6.25167 17.167 6.25016 17.9702 6.25016 19.1666V35.4166H10.4168V14.5835ZM12.9168 35.4166H18.7502V31.6666C18.7502 30.9763 19.3098 30.4166 20.0002 30.4166C20.6905 30.4166 21.2502 30.9763 21.2502 31.6666V35.4166H27.0835V9.99998C27.0835 8.3933 27.0808 7.31403 26.9726 6.50897C26.8692 5.73987 26.6905 5.41071 26.4733 5.19351C26.2561 4.97632 25.9269 4.79761 25.1578 4.69421C24.3528 4.58597 23.2735 4.58332 21.6668 4.58332H18.3335C16.7268 4.58332 15.6475 4.58597 14.8425 4.69421C14.0734 4.79761 13.7442 4.97632 13.527 5.19351C13.3098 5.41071 13.1311 5.73987 13.0277 6.50897C12.9195 7.31403 12.9168 8.3933 12.9168 9.99998V35.4166ZM29.5835 35.4166H33.7502V19.1666C33.7502 17.9702 33.7487 17.167 33.6864 16.5547C33.6262 15.9632 33.5198 15.69 33.3991 15.5092C33.2471 15.2817 33.0517 15.0864 32.8243 14.9344C32.6435 14.8136 32.3702 14.7073 31.7788 14.6471C31.2404 14.5924 30.5545 14.5846 29.5835 14.5835V35.4166ZM15.4168 8.33332C15.4168 7.64296 15.9765 7.08332 16.6668 7.08332H23.3335C24.0239 7.08332 24.5835 7.64296 24.5835 8.33332C24.5835 9.02367 24.0239 9.58332 23.3335 9.58332H16.6668C15.9765 9.58332 15.4168 9.02367 15.4168 8.33332ZM15.4168 13.3333C15.4168 12.643 15.9765 12.0833 16.6668 12.0833H23.3335C24.0239 12.0833 24.5835 12.643 24.5835 13.3333C24.5835 14.0237 24.0239 14.5833 23.3335 14.5833H16.6668C15.9765 14.5833 15.4168 14.0237 15.4168 13.3333ZM15.4168 18.3333C15.4168 17.643 15.9765 17.0833 16.6668 17.0833H23.3335C24.0239 17.0833 24.5835 17.643 24.5835 18.3333C24.5835 19.0237 24.0239 19.5833 23.3335 19.5833H16.6668C15.9765 19.5833 15.4168 19.0237 15.4168 18.3333ZM15.4168 23.3333C15.4168 22.643 15.9765 22.0833 16.6668 22.0833H23.3335C24.0239 22.0833 24.5835 22.643 24.5835 23.3333C24.5835 24.0237 24.0239 24.5833 23.3335 24.5833H16.6668C15.9765 24.5833 15.4168 24.0237 15.4168 23.3333Z" fill="currentColor"></path>
  </symbol>
  <symbol fill="none" xmlns="http://www.w3.org/2000/svg" viewBox="0 0 40 40" id="ic_advantage1">
    <path fill-rule="evenodd" clip-rule="evenodd" d="M20 2.0835C15.6277 2.0835 12.0833 5.62791 12.0833 10.0002C12.0833 14.3724 15.6277 17.9168 20 17.9168C24.3722 17.9168 27.9166 14.3724 27.9166 10.0002C27.9166 5.62791 24.3722 2.0835 20 2.0835ZM14.5833 10.0002C14.5833 7.00862 17.0084 4.5835 20 4.5835C22.9915 4.5835 25.4166 7.00862 25.4166 10.0002C25.4166 12.9917 22.9915 15.4168 20 15.4168C17.0084 15.4168 14.5833 12.9917 14.5833 10.0002Z" fill="currentColor"></path>
    <path d="M30 5.41683C29.3096 5.41683 28.75 5.97647 28.75 6.66683C28.75 7.35719 29.3096 7.91683 30 7.91683C32.2941 7.91683 33.75 9.42638 33.75 10.8335C33.75 12.2406 32.2941 13.7502 30 13.7502C29.3096 13.7502 28.75 14.3098 28.75 15.0002C28.75 15.6905 29.3096 16.2502 30 16.2502C33.2287 16.2502 36.25 14.0288 36.25 10.8335C36.25 7.63824 33.2287 5.41683 30 5.41683Z" fill="currentColor"></path>
    <path d="M11.25 6.66683C11.25 5.97647 10.6903 5.41683 9.99996 5.41683C6.77125 5.41683 3.74996 7.63824 3.74996 10.8335C3.74996 14.0288 6.77125 16.2502 9.99996 16.2502C10.6903 16.2502 11.25 15.6905 11.25 15.0002C11.25 14.3098 10.6903 13.7502 9.99996 13.7502C7.70582 13.7502 6.24996 12.2406 6.24996 10.8335C6.24996 9.42638 7.70582 7.91683 9.99996 7.91683C10.6903 7.91683 11.25 7.35719 11.25 6.66683Z" fill="currentColor"></path>
    <path fill-rule="evenodd" clip-rule="evenodd" d="M20 20.4168C17.0262 20.4168 14.2774 21.2181 12.2355 22.5794C10.2024 23.9348 8.74996 25.9446 8.74996 28.3335C8.74996 30.7224 10.2024 32.7322 12.2355 34.0876C14.2774 35.4488 17.0262 36.2502 20 36.2502C22.9737 36.2502 25.7225 35.4488 27.7644 34.0876C29.7975 32.7322 31.25 30.7224 31.25 28.3335C31.25 25.9446 29.7975 23.9348 27.7644 22.5794C25.7225 21.2181 22.9737 20.4168 20 20.4168ZM11.25 28.3335C11.25 27.0405 12.0361 25.717 13.6223 24.6595C15.1997 23.6079 17.4509 22.9168 20 22.9168C22.549 22.9168 24.8002 23.6079 26.3777 24.6595C27.9638 25.717 28.75 27.0405 28.75 28.3335C28.75 29.6265 27.9638 30.95 26.3777 32.0075C24.8002 33.0591 22.549 33.7502 20 33.7502C17.4509 33.7502 15.1997 33.0591 13.6223 32.0075C12.0361 30.95 11.25 29.6265 11.25 28.3335Z" fill="currentColor"></path>
    <path d="M32.1123 23.0657C32.2602 22.3914 32.9267 21.9646 33.601 22.1125C35.2042 22.4641 36.6488 23.0991 37.7213 23.9767C38.7929 24.8536 39.5833 26.0589 39.5833 27.5002C39.5833 28.9414 38.7929 30.1468 37.7213 31.0236C36.6488 31.9013 35.2042 32.5363 33.601 32.8878C32.9267 33.0357 32.2602 32.6089 32.1123 31.9346C31.9644 31.2603 32.3912 30.5937 33.0655 30.4458C34.3861 30.1562 35.4415 29.6588 36.1381 29.0888C36.8356 28.5181 37.0833 27.9607 37.0833 27.5002C37.0833 27.0397 36.8356 26.4822 36.1381 25.9115C35.4415 25.3415 34.3861 24.8441 33.0655 24.5545C32.3912 24.4066 31.9644 23.7401 32.1123 23.0657Z" fill="currentColor"></path>
    <path d="M6.39887 22.1125C7.0732 21.9646 7.73974 22.3914 7.88761 23.0657C8.03549 23.7401 7.60871 24.4066 6.93438 24.5545C5.61377 24.8441 4.55838 25.3415 3.86183 25.9115C3.16434 26.4822 2.91663 27.0397 2.91663 27.5002C2.91663 27.9607 3.16434 28.5181 3.86183 29.0888C4.55838 29.6588 5.61377 30.1562 6.93438 30.4458C7.60871 30.5937 8.03549 31.2603 7.88761 31.9346C7.73974 32.6089 7.0732 33.0357 6.39887 32.8878C4.79573 32.5363 3.35113 31.9013 2.27861 31.0236C1.20704 30.1468 0.416626 28.9414 0.416626 27.5002C0.416626 26.0589 1.20704 24.8536 2.27861 23.9767C3.35113 23.0991 4.79573 22.4641 6.39887 22.1125Z" fill="currentColor"></path>
  </symbol>
  <symbol fill="none" xmlns="http://www.w3.org/2000/svg" viewBox="0 0 40 40" id="ic_advantage2">
    <path fill-rule="evenodd" clip-rule="evenodd" d="M17.6559 3.86488C19.1383 3.15637 20.8616 3.15637 22.3439 3.86488C22.9879 4.17269 23.578 4.67602 24.3951 5.37295C24.4375 5.40913 24.4805 5.44582 24.5242 5.48304C24.921 5.8212 25.0459 5.92517 25.1724 6.00992C25.494 6.22548 25.8552 6.37508 26.235 6.45008C26.3844 6.47956 26.5462 6.4944 27.0659 6.53587C27.1231 6.54044 27.1795 6.54491 27.2351 6.54932C28.3056 6.63427 29.0788 6.69562 29.7518 6.93334C31.301 7.48053 32.5196 8.69907 33.0667 10.2483C33.3045 10.9213 33.3658 11.6944 33.4508 12.765C33.4552 12.8206 33.4596 12.8769 33.4642 12.9341C33.5057 13.4538 33.5205 13.6157 33.55 13.7651C33.625 14.1449 33.7746 14.5061 33.9902 14.8277C34.0749 14.9541 34.1789 15.0791 34.517 15.4759C34.5543 15.5196 34.591 15.5626 34.6272 15.6051C35.3241 16.4221 35.8274 17.0122 36.1352 17.6562C36.8437 19.1385 36.8437 20.8618 36.1352 22.3442C35.8274 22.9881 35.3241 23.5782 34.6272 24.3953C34.591 24.4377 34.5543 24.4807 34.517 24.5244C34.1789 24.9212 34.0749 25.0462 33.9902 25.1726C33.7746 25.4942 33.625 25.8554 33.55 26.2353C33.5205 26.3846 33.5057 26.5465 33.4642 27.0662C33.4596 27.1234 33.4552 27.1798 33.4508 27.2353C33.3658 28.3059 33.3045 29.0791 33.0667 29.7521C32.5196 31.3013 31.301 32.5198 29.7518 33.067C29.0788 33.3047 28.3056 33.3661 27.2351 33.451C27.1795 33.4554 27.1231 33.4599 27.0659 33.4645C26.5463 33.5059 26.3844 33.5208 26.235 33.5503C25.8552 33.6252 25.494 33.7749 25.1724 33.9904C25.0459 34.0752 24.921 34.1791 24.5242 34.5173C24.4805 34.5545 24.4375 34.5912 24.3951 34.6274C23.578 35.3243 22.9879 35.8276 22.3439 36.1354C20.8616 36.844 19.1383 36.844 17.6559 36.1354C17.0119 35.8276 16.4218 35.3243 15.6048 34.6274C15.5624 34.5912 15.5193 34.5545 15.4757 34.5173C15.0789 34.1791 14.9539 34.0752 14.8274 33.9904C14.5058 33.7749 14.1447 33.6252 13.7648 33.5503C13.6155 33.5208 13.4536 33.5059 12.9339 33.4645C12.8767 33.4599 12.8203 33.4554 12.7648 33.451C11.6942 33.3661 10.921 33.3047 10.248 33.067C8.69883 32.5198 7.48028 31.3013 6.93309 29.7521C6.69538 29.0791 6.63403 28.3059 6.54908 27.2353C6.54467 27.1798 6.54019 27.1234 6.53563 27.0662C6.49416 26.5465 6.47931 26.3846 6.44983 26.2353C6.37484 25.8554 6.22523 25.4942 6.00967 25.1726C5.92492 25.0462 5.82095 24.9212 5.48279 24.5244C5.44558 24.4807 5.40888 24.4377 5.37271 24.3953C4.67577 23.5782 4.17244 22.9882 3.86464 22.3442C3.15612 20.8618 3.15612 19.1385 3.86464 17.6562C4.17244 17.0122 4.67577 16.4221 5.3727 15.605C5.40888 15.5626 5.44557 15.5196 5.48279 15.4759C5.82095 15.0791 5.92492 14.9541 6.00967 14.8277C6.22523 14.5061 6.37484 14.1449 6.44983 13.7651C6.47931 13.6157 6.49416 13.4538 6.53563 12.9341C6.54019 12.8769 6.54467 12.8206 6.54908 12.765C6.63403 11.6944 6.69538 10.9213 6.93309 10.2483C7.48028 8.69907 8.69883 7.48053 10.248 6.93334C10.921 6.69562 11.6942 6.63427 12.7648 6.54932C12.8203 6.54491 12.8767 6.54044 12.9339 6.53587C13.4536 6.4944 13.6155 6.47956 13.7648 6.45008C14.1447 6.37508 14.5058 6.22548 14.8274 6.00992C14.9539 5.92517 15.0789 5.82119 15.4757 5.48304C15.5193 5.44582 15.5624 5.40912 15.6048 5.37295C16.4218 4.67601 17.0119 4.17269 17.6559 3.86488ZM21.2621 6.12832C20.4639 5.74681 19.536 5.74681 18.7378 6.12832C18.4292 6.27582 18.1039 6.53936 17.1028 7.39244C17.0864 7.40646 17.0702 7.42028 17.0542 7.43393C16.7257 7.714 16.4858 7.91845 16.2242 8.09382C15.6269 8.49415 14.9561 8.772 14.2507 8.91126C13.9417 8.97228 13.6275 8.99728 13.1972 9.03154C13.1762 9.03321 13.155 9.0349 13.1335 9.03662C11.8224 9.14124 11.406 9.1849 11.0835 9.29881C10.2493 9.59345 9.59321 10.2496 9.29857 11.0838C9.18466 11.4063 9.141 11.8226 9.03637 13.1337C9.03466 13.1552 9.03297 13.1765 9.0313 13.1974C8.99704 13.6278 8.97203 13.9419 8.91102 14.251C8.77175 14.9564 8.49391 15.6271 8.09358 16.2244C7.9182 16.4861 7.71376 16.7259 7.43368 17.0544C7.42003 17.0704 7.40621 17.0867 7.3922 17.1031C6.53911 18.1041 6.27557 18.4294 6.12808 18.738C5.74657 19.5362 5.74657 20.4641 6.12808 21.2623C6.27557 21.5709 6.53911 21.8962 7.3922 22.8972C7.40621 22.9137 7.42004 22.9299 7.43369 22.9459C7.71376 23.2744 7.9182 23.5142 8.09358 23.7759C8.49391 24.3732 8.77175 25.044 8.91102 25.7494C8.97203 26.0584 8.99704 26.3725 9.0313 26.8029C9.03297 26.8239 9.03466 26.8451 9.03637 26.8666C9.141 28.1777 9.18466 28.5941 9.29857 28.9166C9.59321 29.7507 10.2493 30.4069 11.0835 30.7015C11.406 30.8154 11.8224 30.8591 13.1335 30.9637L13.1972 30.9688C13.6275 31.003 13.9417 31.0281 14.2507 31.0891C14.9561 31.2283 15.6269 31.5062 16.2242 31.9065C16.4859 32.0819 16.7257 32.2863 17.0542 32.5664L17.1028 32.6079C18.1039 33.461 18.4292 33.7245 18.7378 33.872C19.536 34.2535 20.4639 34.2535 21.2621 33.872C21.5707 33.7245 21.8959 33.461 22.897 32.6079L22.9457 32.5664C23.2742 32.2863 23.514 32.0819 23.7757 31.9065C24.3729 31.5062 25.0437 31.2283 25.7491 31.0891C26.0582 31.0281 26.3723 31.003 26.8027 30.9688L26.8664 30.9637C28.1775 30.8591 28.5938 30.8154 28.9163 30.7015C29.7505 30.4069 30.4066 29.7507 30.7013 28.9166C30.8152 28.5941 30.8588 28.1777 30.9635 26.8666L30.9685 26.8029C31.0028 26.3725 31.0278 26.0584 31.0888 25.7494C31.2281 25.044 31.5059 24.3732 31.9063 23.7759C32.0816 23.5142 32.2861 23.2744 32.5661 22.9459L32.6076 22.8972C33.4607 21.8962 33.7243 21.5709 33.8718 21.2623C34.2533 20.4641 34.2533 19.5362 33.8718 18.738C33.7243 18.4294 33.4607 18.1041 32.6076 17.1031L32.5661 17.0544C32.2861 16.7259 32.0816 16.4861 31.9063 16.2244C31.5059 15.6271 31.2281 14.9564 31.0888 14.251C31.0278 13.9419 31.0028 13.6278 30.9685 13.1974L30.9635 13.1337C30.8588 11.8226 30.8152 11.4063 30.7013 11.0838C30.4066 10.2496 29.7505 9.59345 28.9163 9.29881C28.5938 9.1849 28.1775 9.14124 26.8664 9.03662C26.8449 9.0349 26.8236 9.03321 26.8026 9.03154C26.3723 8.99728 26.0582 8.97228 25.7491 8.91126C25.0437 8.772 24.3729 8.49415 23.7757 8.09382C23.514 7.91844 23.2742 7.714 22.9457 7.43392C22.9296 7.42027 22.9134 7.40645 22.897 7.39244C21.8959 6.53936 21.5707 6.27582 21.2621 6.12832ZM26.7405 14.932C27.2303 15.4219 27.2303 16.2161 26.7405 16.706L18.3782 25.0683C17.8883 25.5581 17.0941 25.5581 16.6043 25.0683L13.2593 21.7234C12.7695 21.2335 12.7695 20.4393 13.2593 19.9494C13.7492 19.4596 14.5434 19.4596 15.0333 19.9494L17.4912 22.4074L24.9666 14.932C25.4564 14.4422 26.2506 14.4422 26.7405 14.932Z" fill="currentColor"></path>
  </symbol>
  <symbol fill="none" xmlns="http://www.w3.org/2000/svg" viewBox="0 0 40 40" id="ic_advantage3">
    <path fill-rule="evenodd" clip-rule="evenodd" d="M19.9378 2.0835H20.0621C21.8786 2.08348 23.3288 2.08347 24.4955 2.19192C25.6938 2.30331 26.7164 2.53731 27.6369 3.08238C28.7402 3.73575 29.6526 4.67315 30.2854 5.79725C30.8108 6.73072 31.0367 7.76686 31.1446 8.98776C31.25 10.18 31.25 11.6637 31.25 13.5304V14.1643C31.829 13.8988 32.4726 13.7502 33.1578 13.7502C35.8608 13.7502 37.9166 16.0627 37.9166 18.7429V26.4287C37.9166 26.4875 37.9166 26.5455 37.9166 26.6028C37.9169 28.2069 37.917 29.2151 37.7322 30.0785C37.1666 32.722 35.3524 34.891 32.9166 35.798V36.6668C32.9166 37.3572 32.357 37.9168 31.6666 37.9168C30.9763 37.9168 30.4166 37.3572 30.4166 36.6668V36.2362C29.9527 36.2504 29.428 36.2503 28.8162 36.2502C28.7553 36.2502 28.6935 36.2502 28.6309 36.2502H11.369C11.3064 36.2502 11.2446 36.2502 11.1837 36.2502C9.71367 36.2505 8.74683 36.2507 7.91662 36.0523V36.6668C7.91662 37.3572 7.35697 37.9168 6.66662 37.9168C5.97626 37.9168 5.41662 37.3572 5.41662 36.6668V35.0002C5.41662 34.973 5.41749 34.946 5.4192 34.9192C3.83593 33.8034 2.69518 32.0765 2.26765 30.0785C2.08289 29.2151 2.08304 28.2069 2.08327 26.6028C2.08328 26.5455 2.08328 26.4875 2.08328 26.4287V18.7429C2.08328 16.0627 4.13909 13.7502 6.84206 13.7502C7.52726 13.7502 8.17087 13.8988 8.74995 14.1643V13.5304C8.74994 11.6637 8.74993 10.18 8.85528 8.98776C8.96317 7.76686 9.18906 6.73072 9.71452 5.79725C10.3473 4.67315 11.2597 3.73575 12.363 3.08238C13.2835 2.53731 14.3061 2.30331 15.5044 2.19192C16.6711 2.08347 18.1213 2.08348 19.9378 2.0835ZM11.1686 16.6668C11.4472 17.3049 11.6008 18.0101 11.6008 18.7429V25.9724H28.3991V18.7429C28.3991 18.0101 28.5527 17.3049 28.8313 16.6668H28.75V13.5899C28.75 11.6503 28.7488 10.2771 28.6543 9.20783C28.5612 8.15457 28.3852 7.51813 28.1068 7.02359C27.6864 6.27669 27.0839 5.66038 26.363 5.23353C25.8912 4.95415 25.283 4.77591 24.2641 4.68119C23.2267 4.58476 21.8928 4.5835 20 4.5835C18.1071 4.5835 16.7732 4.58476 15.7358 4.68119C14.7169 4.77591 14.1087 4.95415 13.6369 5.23353C12.916 5.66038 12.3135 6.27669 11.8931 7.02359C11.6147 7.51813 11.4387 8.15457 11.3456 9.20783C11.2511 10.2771 11.25 11.6503 11.25 13.5899V16.6668H11.1686ZM6.84206 16.2502C5.66934 16.2502 4.58328 17.289 4.58328 18.7429V26.4287C4.58328 28.264 4.59027 28.9851 4.71232 29.5554C5.15377 31.6185 6.64816 33.1705 8.48822 33.6185C8.99238 33.7412 9.63613 33.7502 11.369 33.7502H28.6309C30.3638 33.7502 31.0075 33.7412 31.5117 33.6185C33.3517 33.1705 34.8461 31.6185 35.2876 29.5554C35.4096 28.9851 35.4166 28.264 35.4166 26.4287V18.7429C35.4166 17.289 34.3306 16.2502 33.1578 16.2502C31.9851 16.2502 30.8991 17.289 30.8991 18.7429V27.2224C30.8991 27.9127 30.3394 28.4724 29.6491 28.4724H10.3508C9.66047 28.4724 9.10083 27.9127 9.10083 27.2224V18.7429C9.10083 17.289 8.01477 16.2502 6.84206 16.2502Z" fill="currentColor"></path>
  </symbol>
  <symbol fill="none" xmlns="http://www.w3.org/2000/svg" viewBox="0 0 40 40" id="ic_advantage4">
    <path fill-rule="evenodd" clip-rule="evenodd" d="M18.82 5.51365C18.1637 6.37056 17.423 7.69268 16.3471 9.62275L15.801 10.6025C15.768 10.6616 15.7355 10.7201 15.7033 10.778C15.2021 11.68 14.7791 12.4413 14.0974 12.9588C13.4084 13.4818 12.5684 13.6706 11.5922 13.89C11.5295 13.9041 11.4662 13.9183 11.4024 13.9328L10.3418 14.1727C8.24957 14.6461 6.82626 14.9718 5.85137 15.356C4.90003 15.7309 4.69922 16.0381 4.62268 16.2842C4.5419 16.544 4.53949 16.9414 5.10823 17.8448C5.68548 18.7618 6.65931 19.9055 8.08352 21.571L8.80656 22.4165C8.84858 22.4656 8.89022 22.5142 8.93144 22.5623C9.60312 23.3458 10.1632 23.9991 10.4201 24.8252C10.6754 25.6463 10.5908 26.5092 10.4882 27.5554C10.4819 27.6195 10.4755 27.6844 10.4692 27.75L10.3599 28.8781C10.1447 31.0984 9.99963 32.6271 10.0487 33.7284C10.0977 34.8276 10.3298 35.1315 10.5144 35.2716C10.6786 35.3962 10.9821 35.5342 11.9708 35.2509C12.9756 34.963 14.311 34.352 16.27 33.45L17.2631 32.9928C17.3242 32.9646 17.3848 32.9366 17.4448 32.9089C18.3528 32.4891 19.1406 32.1249 20 32.1249C20.8595 32.1249 21.6472 32.4891 22.5552 32.9089C22.6153 32.9366 22.6758 32.9646 22.737 32.9928L23.73 33.45C25.6891 34.352 27.0245 34.963 28.0293 35.2509C29.018 35.5342 29.3215 35.3962 29.4856 35.2716C29.6702 35.1315 29.9024 34.8276 29.9514 33.7284C30.0004 32.6271 29.8553 31.0984 29.6402 28.8781L29.5309 27.75C29.5245 27.6844 29.5182 27.6196 29.5119 27.5554C29.4093 26.5092 29.3246 25.6463 29.58 24.8252C29.8369 23.999 30.3969 23.3458 31.0686 22.5622C31.1098 22.5142 31.1515 22.4656 31.1935 22.4165L31.9165 21.571C33.3407 19.9055 34.3146 18.7618 34.8918 17.8448C35.4606 16.9414 35.4582 16.544 35.3774 16.2842C35.3008 16.0381 35.1 15.7309 34.1487 15.356C33.1738 14.9718 31.7505 14.6461 29.6583 14.1727L28.5977 13.9328C28.5338 13.9183 28.4705 13.9041 28.4078 13.89C27.4316 13.6706 26.5917 13.4818 25.9026 12.9588C25.221 12.4413 24.7979 11.68 24.2967 10.778C24.2645 10.7201 24.232 10.6616 24.1991 10.6025L23.6529 9.62275C22.577 7.69268 21.8363 6.37056 21.1801 5.51365C20.5245 4.65755 20.1896 4.5835 20 4.5835C19.8104 4.5835 19.4756 4.65755 18.82 5.51365ZM16.8351 3.99366C17.6296 2.95621 18.6115 2.0835 20 2.0835C21.3885 2.0835 22.3705 2.95621 23.1649 3.99366C23.9456 5.01304 24.7734 6.4981 25.7851 8.3131L26.3827 9.38526C27.037 10.5589 27.2043 10.8082 27.4143 10.9676C27.6163 11.121 27.877 11.2065 29.1494 11.4944L30.3161 11.7584C32.2755 12.2016 33.8897 12.5668 35.0653 13.0301C36.2856 13.511 37.3535 14.2198 37.7646 15.5419C38.1715 16.8503 37.7142 18.054 37.0075 19.1767C36.3208 20.2675 35.2241 21.5499 33.8844 23.1165L33.0935 24.0413C32.2318 25.0489 32.0518 25.2954 31.9672 25.5675C31.8809 25.845 31.889 26.1655 32.0192 27.5089L32.1384 28.7391C32.3413 30.8324 32.5068 32.5395 32.4489 33.8397C32.3899 35.1629 32.0894 36.4337 30.9972 37.2628C29.8847 38.1074 28.5903 38.0122 27.3406 37.6542C26.129 37.307 24.6184 36.6114 22.7842 35.7668L21.6914 35.2637C20.4959 34.7132 20.2399 34.6249 20 34.6249C19.7601 34.6249 19.5042 34.7132 18.3086 35.2637L17.2159 35.7668C15.3816 36.6114 13.8711 37.307 12.6594 37.6541C11.4098 38.0122 10.1153 38.1074 9.0028 37.2628C7.91067 36.4337 7.61012 35.1629 7.55117 33.8397C7.49325 32.5395 7.65872 30.8324 7.86162 28.739L7.98083 27.5089C8.111 26.1655 8.11911 25.845 8.03285 25.5675C7.94823 25.2954 7.76823 25.0489 6.90656 24.0413L6.11575 23.1165C4.776 21.5499 3.67921 20.2675 2.99254 19.1767C2.28582 18.054 1.82856 16.8503 2.23544 15.5419C2.64656 14.2198 3.71444 13.511 4.93476 13.0301C6.11036 12.5668 7.72457 12.2016 9.68396 11.7584L9.79007 11.7344L10.8507 11.4944C12.123 11.2065 12.3837 11.121 12.5858 10.9676C12.7957 10.8082 12.9631 10.5589 13.6173 9.38526L14.215 8.31309C15.2267 6.4981 16.0545 5.01304 16.8351 3.99366Z" fill="currentColor"></path>
  </symbol>
  <symbol fill="none" xmlns="http://www.w3.org/2000/svg" viewBox="0 0 16 16" id="ic_arr_hor">
    <path d="M10 13L5 8L10 3" stroke="currentColor" stroke-width="2" stroke-linecap="round" stroke-linejoin="round"></path>
  </symbol>
  <symbol fill="none" xmlns="http://www.w3.org/2000/svg" viewBox="0 0 32 32" id="ic_arr_hor_big">
    <path d="M12 6L22 16L12 26" stroke="currentColor" stroke-width="2" stroke-linecap="round" stroke-linejoin="round"></path>
  </symbol>
  <symbol fill="none" xmlns="http://www.w3.org/2000/svg" viewBox="0 0 16 16" id="ic_city">
    <path fill-rule="evenodd" clip-rule="evenodd" d="M7.99996 1.33337C5.05444 1.33337 2.66663 4.00176 2.66663 7.00004C2.66663 9.97482 4.36884 13.2083 7.02467 14.4497C7.64379 14.7391 8.35613 14.7391 8.97525 14.4497C11.6311 13.2083 13.3333 9.97482 13.3333 7.00004C13.3333 4.00176 10.9455 1.33337 7.99996 1.33337ZM7.99996 8.00004C8.73634 8.00004 9.33329 7.40309 9.33329 6.66671C9.33329 5.93033 8.73634 5.33337 7.99996 5.33337C7.26358 5.33337 6.66663 5.93033 6.66663 6.66671C6.66663 7.40309 7.26358 8.00004 7.99996 8.00004Z" fill="currentColor"></path>
  </symbol>
  <symbol fill="none" xmlns="http://www.w3.org/2000/svg" viewBox="0 0 40 40" id="ic_email">
    <path fill-rule="evenodd" clip-rule="evenodd" d="M31.6668 4.58331C29.5958 4.58331 27.9168 6.26225 27.9168 8.33331C27.9168 10.4044 29.5958 12.0833 31.6668 12.0833C33.7379 12.0833 35.4168 10.4044 35.4168 8.33331C35.4168 6.26225 33.7379 4.58331 31.6668 4.58331ZM25.4168 8.33331C25.4168 4.88153 28.215 2.08331 31.6668 2.08331C35.1186 2.08331 37.9168 4.88153 37.9168 8.33331C37.9168 11.7851 35.1186 14.5833 31.6668 14.5833C28.215 14.5833 25.4168 11.7851 25.4168 8.33331ZM16.5728 5.41665L21.6668 5.41665C22.3572 5.41665 22.9168 5.97629 22.9168 6.66665C22.9168 7.357 22.3572 7.91665 21.6668 7.91665H16.6668C13.4888 7.91665 11.231 7.9193 9.51824 8.14958C7.84143 8.37502 6.87535 8.7978 6.17 9.50315C5.46465 10.2085 5.04187 11.1746 4.81643 12.8514C4.58615 14.5642 4.5835 16.8219 4.5835 20C4.5835 23.178 4.58615 25.4358 4.81643 27.1486C5.04187 28.8254 5.46465 29.7915 6.17 30.4968C6.87535 31.2022 7.84143 31.6249 9.51824 31.8504C11.231 32.0807 13.4888 32.0833 16.6668 32.0833H23.3335C26.5115 32.0833 28.7693 32.0807 30.4821 31.8504C32.1589 31.6249 33.125 31.2022 33.8303 30.4968C34.5357 29.7915 34.9585 28.8254 35.1839 27.1486C35.4142 25.4358 35.4168 23.178 35.4168 20C35.4168 19.3784 35.4213 18.9244 35.4252 18.534C35.4314 17.902 35.436 17.437 35.4172 16.6984C35.3997 16.0083 35.9449 15.4346 36.6351 15.417C37.3252 15.3995 37.8989 15.9448 37.9164 16.6349C37.9362 17.4117 37.9311 17.9419 37.9247 18.612C37.921 19.002 37.9168 19.4392 37.9168 20V20.094C37.9169 23.1569 37.9169 25.583 37.6616 27.4817C37.3989 29.4357 36.8454 31.0173 35.5981 32.2646C34.3508 33.5118 32.7692 34.0654 30.8152 34.3281C28.9165 34.5834 26.4905 34.5833 23.4275 34.5833H16.5728C13.5099 34.5833 11.0838 34.5834 9.18512 34.3281C7.23109 34.0654 5.64951 33.5118 4.40224 32.2646C3.15496 31.0173 2.60143 29.4357 2.33872 27.4817C2.08345 25.583 2.08347 23.1569 2.0835 20.094V19.906C2.08347 16.843 2.08345 14.417 2.33872 12.5183C2.60143 10.5642 3.15496 8.98266 4.40224 7.73538C5.64951 6.48811 7.23109 5.93458 9.18513 5.67187C11.0838 5.4166 13.5099 5.41662 16.5728 5.41665ZM9.03989 12.5331C9.48184 12.0027 10.27 11.9311 10.8004 12.373L14.3986 15.3715C15.9535 16.6673 17.033 17.564 17.9445 18.1502C18.8267 18.7176 19.425 18.9081 20.0002 18.9081C20.5753 18.9081 21.1736 18.7176 22.0559 18.1502C22.9673 17.564 24.0468 16.6673 25.6018 15.3715C26.1321 14.9295 26.9203 15.0012 27.3623 15.5315C27.8042 16.0619 27.7326 16.8501 27.2022 17.2921L27.1396 17.3442C25.6623 18.5753 24.465 19.5732 23.4082 20.2529C22.3074 20.9609 21.2353 21.4081 20.0002 21.4081C18.765 21.4081 17.693 20.9609 16.5921 20.2529C15.5354 19.5732 14.338 18.5754 12.8608 17.3443L9.19993 14.2936C8.66959 13.8516 8.59793 13.0634 9.03989 12.5331Z" fill="currentColor"></path>
  </symbol>
  <symbol fill="none" xmlns="http://www.w3.org/2000/svg" viewBox="0 0 24 24" id="ic_instagram">
    <path d="M15 12C15 12.5933 14.8241 13.1734 14.4944 13.6667C14.1648 14.1601 13.6962 14.5446 13.1481 14.7716C12.5999 14.9987 11.9967 15.0581 11.4147 14.9424C10.8328 14.8266 10.2982 14.5409 9.87868 14.1213C9.45912 13.7018 9.1734 13.1672 9.05764 12.5853C8.94189 12.0033 9.0013 11.4001 9.22836 10.8519C9.45542 10.3038 9.83994 9.83524 10.3333 9.50559C10.8266 9.17595 11.4067 9 12 9C12.7954 9.00091 13.5579 9.31727 14.1203 9.87968C14.6827 10.4421 14.9991 11.2046 15 12ZM21.375 7.875V16.125C21.3734 17.5169 20.8198 18.8513 19.8356 19.8356C18.8513 20.8198 17.5169 21.3734 16.125 21.375H7.875C6.4831 21.3734 5.14865 20.8198 4.16443 19.8356C3.18021 18.8513 2.62658 17.5169 2.625 16.125V7.875C2.62658 6.4831 3.18021 5.14865 4.16443 4.16443C5.14865 3.18021 6.4831 2.62658 7.875 2.625H16.125C17.5169 2.62658 18.8513 3.18021 19.8356 4.16443C20.8198 5.14865 21.3734 6.4831 21.375 7.875ZM16.5 12C16.5 11.11 16.2361 10.24 15.7416 9.49993C15.2471 8.75991 14.5443 8.18314 13.7221 7.84254C12.8998 7.50195 11.995 7.41283 11.1221 7.58647C10.2492 7.7601 9.44736 8.18868 8.81802 8.81802C8.18868 9.44736 7.7601 10.2492 7.58647 11.1221C7.41283 11.995 7.50195 12.8998 7.84254 13.7221C8.18314 14.5443 8.75991 15.2471 9.49993 15.7416C10.24 16.2361 11.11 16.5 12 16.5C13.1931 16.4987 14.3369 16.0241 15.1805 15.1805C16.0241 14.3369 16.4987 13.1931 16.5 12ZM18 7.125C18 6.9025 17.934 6.68499 17.8104 6.49998C17.6868 6.31498 17.5111 6.17078 17.3055 6.08564C17.1 6.00049 16.8738 5.97821 16.6555 6.02162C16.4373 6.06502 16.2368 6.17217 16.0795 6.3295C15.9222 6.48684 15.815 6.68729 15.7716 6.90552C15.7282 7.12375 15.7505 7.34995 15.8356 7.55552C15.9208 7.76109 16.065 7.93679 16.25 8.0604C16.435 8.18402 16.6525 8.25 16.875 8.25C17.1734 8.25 17.4595 8.13147 17.6705 7.9205C17.8815 7.70952 18 7.42337 18 7.125Z" fill="currentColor"></path>
  </symbol>
  <symbol fill="none" xmlns="http://www.w3.org/2000/svg" viewBox="0 0 24 24" id="ic_max">
    <path fill-rule="evenodd" clip-rule="evenodd" d="M12.1969 21.0798C10.3967 21.0798 9.56012 20.817 8.10599 19.7658C7.18619 20.9484 4.27353 21.8726 4.14649 20.2914C4.14649 19.1044 3.88369 18.1014 3.58585 17.0064C3.23109 15.6574 2.82812 14.1551 2.82812 11.9782C2.82812 6.77922 7.09422 2.86792 12.1487 2.86792C17.2076 2.86792 21.1714 6.97194 21.1714 12.0264C21.1884 17.0027 17.1731 21.0532 12.1969 21.0798ZM12.2713 7.36175C9.8098 7.23474 7.89136 8.93855 7.46651 11.6103C7.11611 13.8222 7.73807 16.5159 8.26804 16.656C8.52208 16.7174 9.16156 16.2005 9.56012 15.802C10.2192 16.2573 10.9867 16.5307 11.7852 16.5947C14.3357 16.7174 16.5151 14.7757 16.6863 12.2279C16.786 9.67475 14.8222 7.51226 12.2713 7.36614V7.36175Z" fill="currentColor"></path>
  </symbol>
  <symbol fill="none" xmlns="http://www.w3.org/2000/svg" viewBox="0 0 30 30" id="ic_menu">
    <path fill-rule="evenodd" clip-rule="evenodd" d="M25.9375 8.75C25.9375 9.26777 25.5178 9.6875 25 9.6875L5 9.6875C4.48223 9.6875 4.0625 9.26777 4.0625 8.75C4.0625 8.23223 4.48223 7.8125 5 7.8125L25 7.8125C25.5178 7.8125 25.9375 8.23223 25.9375 8.75Z" fill="currentColor"></path>
    <path fill-rule="evenodd" clip-rule="evenodd" d="M25.9375 15C25.9375 15.5178 25.5178 15.9375 25 15.9375L5 15.9375C4.48223 15.9375 4.0625 15.5178 4.0625 15C4.0625 14.4822 4.48223 14.0625 5 14.0625L25 14.0625C25.5178 14.0625 25.9375 14.4822 25.9375 15Z" fill="currentColor"></path>
    <path fill-rule="evenodd" clip-rule="evenodd" d="M25.9375 21.25C25.9375 21.7678 25.5178 22.1875 25 22.1875L5 22.1875C4.48223 22.1875 4.0625 21.7678 4.0625 21.25C4.0625 20.7322 4.48223 20.3125 5 20.3125L25 20.3125C25.5178 20.3125 25.9375 20.7322 25.9375 21.25Z" fill="currentColor"></path>
  </symbol>
  <symbol fill="none" xmlns="http://www.w3.org/2000/svg" viewBox="0 0 40 40" id="ic_phone">
    <path d="M22.0992 3.13358C22.2095 2.4521 22.8538 1.98981 23.5352 2.10014C23.5774 2.10821 23.7131 2.13358 23.7843 2.14942C23.9265 2.18109 24.1249 2.22985 24.3722 2.30189C24.8668 2.44597 25.5578 2.68331 26.3872 3.06353C28.0477 3.82479 30.2573 5.15647 32.5503 7.44947C34.8433 9.74247 36.175 11.9522 36.9363 13.6126C37.3165 14.442 37.5538 15.133 37.6979 15.6276C37.77 15.875 37.8187 16.0733 37.8504 16.2156C37.8662 16.2867 37.8778 16.3438 37.8859 16.3859L37.8955 16.4379C38.0058 17.1194 37.5477 17.7903 36.8662 17.9006C36.1867 18.0106 35.5465 17.5506 35.4335 16.8723C35.43 16.8541 35.4205 16.8051 35.4102 16.759C35.3896 16.6667 35.354 16.5203 35.2977 16.3267C35.1849 15.9395 34.989 15.364 34.6637 14.6545C34.014 13.2373 32.8457 11.2803 30.7826 9.21723C28.7195 7.15413 26.7625 5.98581 25.3453 5.33609C24.6359 5.01083 24.0603 4.81494 23.6731 4.70215C23.4795 4.64576 23.2362 4.58991 23.1439 4.56935C22.4656 4.45632 21.9892 3.81312 22.0992 3.13358Z" fill="currentColor"></path>
    <path fill-rule="evenodd" clip-rule="evenodd" d="M22.4763 8.88269C22.6659 8.2189 23.3578 7.83453 24.0216 8.02419L23.6782 9.22609C24.0216 8.02419 24.0216 8.02419 24.0216 8.02419L24.024 8.02487L24.0265 8.02561L24.0321 8.02724L24.045 8.03109L24.078 8.04137C24.1031 8.0494 24.1345 8.05987 24.1719 8.07315C24.2468 8.09971 24.3457 8.13748 24.467 8.18949C24.7099 8.29355 25.0416 8.45425 25.4492 8.69543C26.2649 9.17824 27.3786 9.9802 28.6869 11.2885C29.9951 12.5968 30.7971 13.7104 31.2799 14.5262C31.5211 14.9337 31.6818 15.2655 31.7859 15.5083C31.8379 15.6296 31.8756 15.7286 31.9022 15.8034C31.9155 15.8408 31.9259 15.8722 31.934 15.8973L31.9442 15.9303L31.9481 15.9432L31.9497 15.9488L31.9505 15.9514C31.9505 15.9514 31.9512 15.9538 30.7492 16.2972L31.9512 15.9538C32.1408 16.6175 31.7564 17.3094 31.0927 17.4991C30.4345 17.6871 29.7487 17.3108 29.5523 16.6574L29.5461 16.6394C29.5372 16.6144 29.5189 16.5651 29.488 16.4931C29.4263 16.3492 29.3145 16.1138 29.1285 15.7995C28.7568 15.1716 28.0857 14.2228 26.9191 13.0563C25.7525 11.8897 24.8037 11.2185 24.1758 10.8469C23.8615 10.6608 23.6261 10.549 23.4823 10.4873C23.4102 10.4565 23.3609 10.4381 23.3359 10.4292L23.3179 10.4231C22.6645 10.2266 22.2882 9.54085 22.4763 8.88269Z" fill="currentColor"></path>
    <path fill-rule="evenodd" clip-rule="evenodd" d="M8.34559 7.34485C11.1457 4.54474 15.8709 4.7576 17.8206 8.25114L18.9023 10.1894C20.1755 12.4707 19.633 15.3492 17.7691 17.2358C17.7443 17.2698 17.6127 17.4614 17.5963 17.7961C17.5754 18.2233 17.7272 19.2112 19.2579 20.7419C20.7881 22.2722 21.7759 22.4242 22.2033 22.4035C22.5383 22.3872 22.73 22.2555 22.764 22.2307C24.6506 20.3668 27.5291 19.8243 29.8105 21.0975L31.7487 22.1792C35.2422 24.1289 35.4551 28.8541 32.655 31.6542C31.1572 33.152 29.1657 34.4828 26.8253 34.5715C23.3571 34.703 17.5984 33.8074 11.8954 28.1044C6.19244 22.4014 5.2968 16.6427 5.42828 13.1745C5.517 10.8341 6.84782 8.84262 8.34559 7.34485ZM15.6376 9.46946C14.6392 7.68056 11.9564 7.26957 10.1134 9.11262C8.82111 10.4049 7.981 11.8312 7.92648 13.2692C7.81684 16.1614 8.53091 21.2043 13.6632 26.3366C18.7955 31.4689 23.8384 32.183 26.7306 32.0733C28.1686 32.0188 29.5949 31.1787 30.8872 29.8865C32.7302 28.0434 32.3193 25.3606 30.5303 24.3622L28.5921 23.2805C27.3865 22.6077 25.6929 22.8372 24.5041 24.026C24.3873 24.1427 23.6439 24.8363 22.3248 24.9005C20.9744 24.9662 19.3398 24.3594 17.4901 22.5097C15.6398 20.6594 15.0332 19.0244 15.0993 17.6738C15.1639 16.3546 15.8576 15.6119 15.9737 15.4958C17.1626 14.307 17.3922 12.6134 16.7193 11.4077L15.6376 9.46946Z" fill="currentColor"></path>
  </symbol>
  <symbol fill="none" xmlns="http://www.w3.org/2000/svg" viewBox="0 0 60 60" id="ic_slider_arr">
    <path d="M37.5 48.75L18.75 30L37.5 11.25" stroke="currentColor" stroke-width="2" stroke-linecap="round" stroke-linejoin="round"></path>
  </symbol>
  <symbol fill="none" xmlns="http://www.w3.org/2000/svg" viewBox="0 0 24 24" id="ic_tg">
    <path d="M20.7096 3.6545C20.7096 3.6545 22.6523 2.897 22.4904 4.73664C22.4364 5.49415 21.9508 8.1454 21.573 11.0131L20.2779 19.5079C20.2779 19.5079 20.17 20.7524 19.1987 20.9688C18.2273 21.1852 16.7704 20.2113 16.5005 19.9949C16.2847 19.8326 12.4534 17.3977 11.1043 16.2074C10.7265 15.8827 10.2948 15.2334 11.1582 14.4759L16.8243 9.06525C17.4719 8.41595 18.1194 6.90095 15.4213 8.7406L7.86655 13.8808C7.86655 13.8808 7.00315 14.4218 5.3843 13.9349L1.87671 12.8527C1.87671 12.8527 0.581605 12.0411 2.79408 11.2295C8.19035 8.68645 14.8277 6.0893 20.7096 3.6545Z" fill="currentColor"></path>
  </symbol>
  <symbol fill="none" xmlns="http://www.w3.org/2000/svg" viewBox="0 0 20 20" id="ic_theme_dark">
    <path fill-rule="evenodd" clip-rule="evenodd" d="M9.18149 2.33465C5.30926 2.74351 2.29199 6.0194 2.29199 10C2.29199 14.2572 5.74313 17.7083 10.0003 17.7083C13.9809 17.7083 17.2568 14.6911 17.6657 10.8188C16.5601 12.2224 14.8442 13.125 12.917 13.125C9.58027 13.125 6.87533 10.4201 6.87533 7.08333C6.87533 5.15615 7.77795 3.44025 9.18149 2.33465ZM1.04199 10C1.04199 5.05245 5.05277 1.04167 10.0003 1.04167C10.5975 1.04167 10.8965 1.51772 10.9477 1.89689C10.997 2.26165 10.8621 2.72555 10.4429 2.97889C9.05254 3.81901 8.12533 5.34319 8.12533 7.08333C8.12533 9.7297 10.2706 11.875 12.917 11.875C14.6571 11.875 16.1813 10.9478 17.0214 9.55747C17.2748 9.1382 17.7387 9.00337 18.1034 9.05263C18.4826 9.10384 18.9587 9.40281 18.9587 10C18.9587 14.9476 14.9479 18.9583 10.0003 18.9583C5.05277 18.9583 1.04199 14.9476 1.04199 10Z" fill="currentColor"></path>
  </symbol>
  <symbol fill="none" xmlns="http://www.w3.org/2000/svg" viewBox="0 0 20 20" id="ic_theme_light">
    <path fill-rule="evenodd" clip-rule="evenodd" d="M10.0003 1.04167C10.3455 1.04167 10.6253 1.32149 10.6253 1.66667V2.5C10.6253 2.84518 10.3455 3.125 10.0003 3.125C9.65515 3.125 9.37533 2.84518 9.37533 2.5V1.66667C9.37533 1.32149 9.65515 1.04167 10.0003 1.04167ZM3.66583 3.66551C3.90991 3.42143 4.30564 3.42143 4.54972 3.66551L4.87708 3.99287C5.12116 4.23695 5.12116 4.63268 4.87708 4.87676C4.633 5.12083 4.23728 5.12083 3.9932 4.87676L3.66583 4.54939C3.42176 4.30532 3.42176 3.90959 3.66583 3.66551ZM16.3346 3.66573C16.5787 3.9098 16.5787 4.30553 16.3346 4.54961L16.0072 4.87697C15.7632 5.12105 15.3674 5.12105 15.1234 4.87697C14.8793 4.63289 14.8793 4.23717 15.1234 3.99309L15.4507 3.66573C15.6948 3.42165 16.0905 3.42165 16.3346 3.66573ZM10.0003 5.625C7.58408 5.625 5.62533 7.58376 5.62533 10C5.62533 12.4162 7.58408 14.375 10.0003 14.375C12.4166 14.375 14.3753 12.4162 14.3753 10C14.3753 7.58376 12.4166 5.625 10.0003 5.625ZM4.37533 10C4.37533 6.8934 6.89372 4.375 10.0003 4.375C13.1069 4.375 15.6253 6.8934 15.6253 10C15.6253 13.1066 13.1069 15.625 10.0003 15.625C6.89372 15.625 4.37533 13.1066 4.37533 10ZM1.04199 10C1.04199 9.65482 1.32181 9.375 1.66699 9.375H2.50033C2.8455 9.375 3.12533 9.65482 3.12533 10C3.12533 10.3452 2.8455 10.625 2.50033 10.625H1.66699C1.32181 10.625 1.04199 10.3452 1.04199 10ZM16.8753 10C16.8753 9.65482 17.1551 9.375 17.5003 9.375H18.3337C18.6788 9.375 18.9587 9.65482 18.9587 10C18.9587 10.3452 18.6788 10.625 18.3337 10.625H17.5003C17.1551 10.625 16.8753 10.3452 16.8753 10ZM15.1234 15.123C15.3674 14.879 15.7632 14.879 16.0072 15.123L16.3346 15.4504C16.5787 15.6945 16.5787 16.0902 16.3346 16.3343C16.0905 16.5784 15.6948 16.5784 15.4507 16.3343L15.1234 16.0069C14.8793 15.7628 14.8793 15.3671 15.1234 15.123ZM4.87708 15.1232C5.12116 15.3673 5.12116 15.7631 4.87708 16.0071L4.54972 16.3345C4.30564 16.5786 3.90991 16.5786 3.66583 16.3345C3.42176 16.0904 3.42176 15.6947 3.66583 15.4506L3.9932 15.1232C4.23728 14.8792 4.633 14.8792 4.87708 15.1232ZM10.0003 16.875C10.3455 16.875 10.6253 17.1548 10.6253 17.5V18.3333C10.6253 18.6785 10.3455 18.9583 10.0003 18.9583C9.65515 18.9583 9.37533 18.6785 9.37533 18.3333V17.5C9.37533 17.1548 9.65515 16.875 10.0003 16.875Z" fill="currentColor"></path>
  </symbol>
  <symbol fill="none" xmlns="http://www.w3.org/2000/svg" viewBox="0 0 40 40" id="ic_time">
    <path fill-rule="evenodd" clip-rule="evenodd" d="M18.7502 3.33331C18.7502 2.64296 19.3098 2.08331 20.0002 2.08331C29.8953 2.08331 37.9168 10.1049 37.9168 20C37.9168 29.8951 29.8953 37.9166 20.0002 37.9166C10.1051 37.9166 2.0835 29.8951 2.0835 20C2.0835 19.3096 2.64314 18.75 3.3335 18.75C4.02385 18.75 4.5835 19.3096 4.5835 20C4.5835 28.5144 11.4858 35.4166 20.0002 35.4166C28.5146 35.4166 35.4168 28.5144 35.4168 20C35.4168 11.4856 28.5146 4.58331 20.0002 4.58331C19.3098 4.58331 18.7502 4.02367 18.7502 3.33331ZM20.0002 13.75C20.6905 13.75 21.2502 14.3096 21.2502 15V20.4166H26.6668C27.3572 20.4166 27.9168 20.9763 27.9168 21.6666C27.9168 22.357 27.3572 22.9166 26.6668 22.9166H20.0002C19.3098 22.9166 18.7502 22.357 18.7502 21.6666V15C18.7502 14.3096 19.3098 13.75 20.0002 13.75Z" fill="currentColor"></path>
    <path fill-rule="evenodd" clip-rule="evenodd" d="M15.1661 3.99588C15.4147 4.63992 15.0942 5.36355 14.4501 5.61216C14.2144 5.70316 13.9815 5.79979 13.7515 5.90189C13.1205 6.182 12.3819 5.89757 12.1018 5.2666C11.8217 4.63563 12.1061 3.89705 12.7371 3.61693C13.0046 3.49817 13.2756 3.38576 13.5498 3.2799C14.1939 3.03129 14.9175 3.35184 15.1661 3.99588ZM9.413 7.06709C9.8891 7.567 9.8698 8.35823 9.36988 8.83433C9.1871 9.0084 9.00859 9.18692 8.83451 9.3697C8.35841 9.86962 7.56719 9.88892 7.06727 9.41282C6.56735 8.93672 6.54805 8.14549 7.02415 7.64558C7.22627 7.43335 7.43354 7.22609 7.64576 7.02397C8.14568 6.54787 8.9369 6.56717 9.413 7.06709ZM5.26678 12.1016C5.89776 12.3818 6.18218 13.1203 5.90207 13.7513C5.79997 13.9813 5.70334 14.2142 5.61235 14.45C5.36373 15.094 4.6401 15.4146 3.99606 15.1659C3.35202 14.9173 3.03147 14.1937 3.28008 13.5497C3.38595 13.2754 3.49835 13.0044 3.61711 12.7369C3.89723 12.106 4.63581 11.8215 5.26678 12.1016Z" fill="currentColor"></path>
  </symbol>
  <symbol fill="none" xmlns="http://www.w3.org/2000/svg" viewBox="0 0 16 16" id="ic_video_play">
    <path d="M14.2723 6.23497C15.6869 7.00423 15.6869 8.99561 14.2723 9.76486L5.73104 14.4096C4.3562 15.1572 2.66663 14.1841 2.66663 12.6447L2.66663 3.35518C2.66663 1.81571 4.35619 0.842601 5.73103 1.59024L14.2723 6.23497Z" fill="currentColor"></path>
  </symbol>
  <symbol fill="none" xmlns="http://www.w3.org/2000/svg" viewBox="0 0 24 24" id="ic_vk">
    <path d="M14.2972 11.8125C13.9222 11.6715 13.9222 11.133 13.8989 10.758C13.8052 9.42229 14.2739 7.38304 13.7114 6.51604C13.3132 6.00004 11.3909 6.04729 10.2194 6.11779C9.89091 6.16504 9.49266 6.2348 9.21141 6.3758C8.93016 6.5168 8.64891 6.75079 8.64891 6.96154C8.64891 7.26604 9.35241 7.21954 9.60966 7.61779C9.89091 8.04004 9.89091 8.95354 9.89091 9.70354C9.89091 10.5705 9.74991 11.7195 9.39891 11.766C8.85966 11.7893 8.55516 11.25 8.27391 10.8518C7.71141 10.0785 7.14891 9.11704 6.72666 8.17954C6.51591 7.68754 6.39816 7.14829 6.09366 6.93754C5.62491 6.60904 4.78116 6.58579 3.96066 6.60904C3.21066 6.63229 2.13216 6.53854 1.92141 6.98404C1.75716 7.47605 2.10891 7.94479 2.29641 8.34379C3.25716 10.4295 4.28841 12.258 5.55441 13.992C6.72666 15.609 7.82766 16.8983 9.98391 17.5778C10.5937 17.7653 13.2652 18.3045 13.8044 17.5778C13.9919 17.2965 13.9454 16.6635 14.0392 16.1948C14.1329 15.726 14.2499 15.2573 14.6954 15.234C15.0704 15.2108 15.2812 15.5385 15.5159 15.7733C15.7739 16.0313 15.9847 16.242 16.1722 16.4768C16.6177 16.9223 17.0864 17.5313 17.6489 17.766C18.4222 18.0945 19.6177 18.0008 20.7427 17.9535C21.6569 17.9303 22.3132 17.7428 22.3837 17.2035C22.4309 16.7813 21.9614 16.1723 21.6802 15.8205C20.9767 14.9535 20.6489 14.6955 19.8517 13.8983C19.4999 13.5465 19.0544 13.1715 19.0544 12.75C19.0312 12.492 19.2419 12.258 19.4294 12C20.2499 10.7813 21.0704 9.91429 21.8204 8.64829C22.0312 8.27329 22.5239 7.40629 22.3364 6.98404C22.1257 6.51529 20.9534 6.65554 20.2267 6.65554C19.2892 6.65554 18.0704 6.58504 17.8357 6.77254C17.3902 7.07704 17.2027 7.5698 16.9919 8.03855C16.5232 9.11704 15.8902 10.218 15.2339 11.0385C14.9992 11.3198 14.5544 11.9055 14.2964 11.8118L14.2972 11.8125Z" fill="currentColor"></path>
  </symbol>
</svg>